<svg xmlns="http://www.w3.org/2000/svg" xmlns:xlink="http://www.w3.org/1999/xlink" width="1000" zoomAndPan="magnify" viewBox="0 0 750 449.999984" height="600" preserveAspectRatio="xMidYMid meet" version="1.0"><defs><clipPath id="29977ac941"><path d="M 2.992188 11.941406 L 746.992188 11.941406 L 746.992188 437.941406 L 2.992188 437.941406 Z M 2.992188 11.941406 " clip-rule="nonzero"/></clipPath></defs><g clip-path="url(#29977ac941)"><path fill="#442832" d="M 533.992188 437.800781 L 215.902344 437.800781 C 98.492188 437.800781 2.992188 342.304688 2.992188 224.890625 C 2.992188 107.480469 98.492188 11.984375 215.902344 11.984375 L 533.992188 11.984375 C 651.40625 11.984375 746.902344 107.480469 746.902344 224.890625 C 746.902344 342.304688 651.40625 437.800781 533.992188 437.800781 Z M 215.902344 42.558594 C 115.308594 42.558594 33.570312 124.296875 33.570312 224.890625 C 33.570312 325.488281 115.308594 407.226562 215.902344 407.226562 L 533.992188 407.226562 C 634.484375 407.226562 716.328125 325.488281 716.328125 224.890625 C 716.328125 124.296875 634.484375 42.558594 533.992188 42.558594 Z M 215.902344 42.558594 " fill-opacity="1" fill-rule="nonzero"/></g><path fill="#442832" d="M 489.25 337.308594 C 485.378906 337.308594 481.402344 335.78125 478.449219 332.824219 C 472.433594 326.8125 472.433594 317.128906 478.449219 311.21875 L 564.367188 225.300781 L 478.449219 139.382812 C 472.433594 133.367188 472.433594 123.6875 478.449219 117.773438 C 484.460938 111.863281 494.144531 111.761719 500.054688 117.773438 L 592.394531 210.113281 C 600.75 218.472656 600.75 232.128906 592.394531 240.484375 L 500.054688 332.824219 C 497.097656 335.78125 493.125 337.308594 489.25 337.308594 Z M 570.785156 231.722656 Z M 570.785156 231.722656 " fill-opacity="1" fill-rule="nonzero"/><path fill="#442832" d="M 583.324219 240.484375 L 166.472656 240.484375 C 158.011719 240.484375 151.183594 233.65625 151.183594 225.199219 C 151.183594 216.738281 158.011719 209.910156 166.472656 209.910156 L 583.324219 209.910156 C 591.78125 209.910156 598.609375 216.738281 598.609375 225.199219 C 598.609375 233.65625 591.78125 240.484375 583.324219 240.484375 Z M 583.324219 240.484375 " fill-opacity="1" fill-rule="nonzero"/></svg>