<svg xmlns="http://www.w3.org/2000/svg" xmlns:xlink="http://www.w3.org/1999/xlink" width="1000" zoomAndPan="magnify" viewBox="0 0 750 749.999995" height="1000" preserveAspectRatio="xMidYMid meet" version="1.0"><defs><filter x="0%" y="0%" width="100%" height="100%" id="7c76186871"><feColorMatrix values="0 0 0 0 1 0 0 0 0 1 0 0 0 0 1 0 0 0 1 0" color-interpolation-filters="sRGB"/></filter><mask id="f5433711e5"><g filter="url(#7c76186871)"><rect x="-75" width="900" fill="#000000" y="-74.999999" height="899.999994" fill-opacity="0.66"/></g></mask><clipPath id="6913ee1cfd"><rect x="0" width="609" y="0" height="602"/></clipPath></defs><g mask="url(#f5433711e5)"><g transform="matrix(1, 0, 0, 1, 71, 74)"><g clip-path="url(#6913ee1cfd)"><path fill="#000000" d="M 569.792969 432.183594 L 558.238281 426.988281 C 560.441406 422.066406 562.492188 417.082031 564.398438 412.039062 C 566.304688 406.996094 568.058594 401.898438 569.660156 396.753906 C 571.265625 391.605469 572.714844 386.414062 574.007812 381.179688 C 575.304688 375.945312 576.445312 370.679688 577.425781 365.378906 C 578.410156 360.078125 579.234375 354.75 579.902344 349.402344 C 580.570312 344.050781 581.078125 338.683594 581.429688 333.304688 C 581.777344 327.925781 581.96875 322.539062 582 317.148438 C 582.027344 311.753906 581.898438 306.367188 581.609375 300.984375 C 581.320312 295.601562 580.871094 290.230469 580.261719 284.871094 C 579.65625 279.515625 578.890625 274.179688 577.964844 268.867188 C 577.042969 263.554688 575.960938 258.277344 574.722656 253.027344 C 573.488281 247.78125 572.097656 242.574219 570.550781 237.410156 C 569.003906 232.242188 567.308594 227.128906 565.457031 222.0625 C 563.609375 217 561.613281 211.992188 559.464844 207.046875 C 557.320312 202.101562 555.03125 197.222656 552.59375 192.414062 C 550.160156 187.601562 547.585938 182.867188 544.871094 178.210938 L 555.800781 171.8125 C 558.644531 176.6875 561.339844 181.640625 563.886719 186.675781 C 566.4375 191.710938 568.835938 196.816406 571.082031 201.992188 C 573.328125 207.167969 575.417969 212.410156 577.351562 217.707031 C 579.289062 223.007812 581.066406 228.363281 582.683594 233.769531 C 584.300781 239.175781 585.757812 244.625 587.050781 250.117188 C 588.347656 255.609375 589.476562 261.132812 590.445312 266.695312 C 591.414062 272.253906 592.214844 277.835938 592.851562 283.445312 C 593.484375 289.050781 593.957031 294.671875 594.257812 300.308594 C 594.5625 305.941406 594.695312 311.582031 594.664062 317.222656 C 594.632812 322.867188 594.433594 328.503906 594.070312 334.132812 C 593.703125 339.765625 593.171875 345.378906 592.472656 350.980469 C 591.773438 356.578125 590.910156 362.152344 589.878906 367.703125 C 588.851562 373.25 587.65625 378.761719 586.300781 384.242188 C 584.945312 389.71875 583.425781 395.152344 581.75 400.539062 C 580.070312 405.925781 578.234375 411.257812 576.238281 416.539062 C 574.246094 421.816406 572.09375 427.03125 569.792969 432.183594 Z M 569.792969 432.183594 " fill-opacity="1" fill-rule="nonzero"/><path fill="#000000" d="M 524.703125 148.445312 C 524.3125 147.9375 523.960938 147.488281 523.5625 147.050781 C 521.222656 144.078125 518.816406 141.15625 516.355469 138.285156 C 513.890625 135.410156 511.367188 132.59375 508.785156 129.824219 C 506.203125 127.058594 503.566406 124.34375 500.871094 121.6875 C 498.175781 119.027344 495.425781 116.429688 492.625 113.886719 C 489.820312 111.34375 486.96875 108.859375 484.0625 106.433594 C 481.15625 104.011719 478.199219 101.648438 475.195312 99.347656 C 472.191406 97.046875 469.136719 94.808594 466.039062 92.636719 C 462.941406 90.460938 459.800781 88.351562 456.613281 86.308594 C 453.429688 84.265625 450.203125 82.292969 446.933594 80.382812 C 443.664062 78.472656 440.359375 76.636719 437.015625 74.863281 C 433.671875 73.09375 430.289062 71.394531 426.875 69.761719 C 423.457031 68.132812 420.011719 66.574219 416.53125 65.089844 C 413.050781 63.601562 409.539062 62.191406 406 60.851562 C 402.460938 59.511719 398.894531 58.242188 395.304688 57.050781 C 391.710938 55.859375 388.097656 54.746094 384.457031 53.703125 C 380.820312 52.664062 377.160156 51.699219 373.480469 50.8125 C 369.804688 49.921875 366.109375 49.109375 362.394531 48.375 C 358.683594 47.640625 354.957031 46.984375 351.21875 46.40625 C 347.476562 45.828125 343.726562 45.328125 339.964844 44.902344 C 336.207031 44.480469 332.4375 44.136719 328.664062 43.871094 C 324.886719 43.605469 321.109375 43.417969 317.324219 43.308594 C 313.542969 43.199219 309.757812 43.171875 305.976562 43.21875 C 302.191406 43.269531 298.410156 43.398438 294.632812 43.605469 C 290.851562 43.8125 287.078125 44.097656 283.3125 44.460938 C 279.546875 44.824219 275.789062 45.265625 272.039062 45.785156 C 268.292969 46.308594 264.554688 46.90625 260.832031 47.582031 C 257.109375 48.257812 253.398438 49.011719 249.707031 49.84375 C 246.015625 50.671875 242.34375 51.578125 238.6875 52.5625 C 235.035156 53.546875 231.402344 54.605469 227.792969 55.742188 C 224.179688 56.878906 220.597656 58.085938 217.035156 59.371094 C 213.476562 60.65625 209.945312 62.011719 206.441406 63.445312 C 202.9375 64.875 199.464844 66.378906 196.027344 67.957031 L 190.730469 56.441406 C 194.328125 54.792969 197.957031 53.222656 201.621094 51.722656 C 205.28125 50.226562 208.972656 48.808594 212.695312 47.464844 C 216.417969 46.121094 220.164062 44.855469 223.941406 43.667969 C 227.714844 42.480469 231.511719 41.375 235.332031 40.34375 C 239.152344 39.316406 242.992188 38.367188 246.851562 37.496094 C 250.710938 36.628906 254.585938 35.839844 258.480469 35.128906 C 262.371094 34.421875 266.277344 33.796875 270.195312 33.25 C 274.113281 32.707031 278.042969 32.242188 281.980469 31.859375 C 285.917969 31.476562 289.863281 31.179688 293.8125 30.960938 C 297.765625 30.742188 301.71875 30.605469 305.671875 30.554688 C 309.628906 30.5 313.585938 30.53125 317.539062 30.640625 C 321.496094 30.753906 325.445312 30.945312 329.390625 31.222656 C 333.339844 31.5 337.277344 31.855469 341.210938 32.296875 C 345.140625 32.734375 349.0625 33.257812 352.972656 33.859375 C 356.882812 34.464844 360.78125 35.148438 364.660156 35.914062 C 368.542969 36.679688 372.40625 37.523438 376.253906 38.449219 C 380.101562 39.375 383.925781 40.382812 387.730469 41.464844 C 391.535156 42.550781 395.316406 43.714844 399.070312 44.957031 C 402.828125 46.203125 406.558594 47.523438 410.257812 48.917969 C 413.960938 50.316406 417.628906 51.792969 421.269531 53.34375 C 424.910156 54.894531 428.515625 56.519531 432.089844 58.21875 C 435.660156 59.917969 439.195312 61.695312 442.695312 63.542969 C 446.191406 65.390625 449.652344 67.308594 453.070312 69.300781 C 456.488281 71.292969 459.863281 73.355469 463.199219 75.488281 C 466.53125 77.621094 469.816406 79.820312 473.058594 82.089844 C 476.300781 84.359375 479.492188 86.695312 482.636719 89.097656 C 485.78125 91.5 488.871094 93.964844 491.914062 96.496094 C 494.957031 99.027344 497.941406 101.621094 500.875 104.273438 C 503.808594 106.929688 506.6875 109.644531 509.507812 112.417969 C 512.328125 115.195312 515.089844 118.027344 517.792969 120.917969 C 520.496094 123.804688 523.136719 126.75 525.714844 129.75 C 528.296875 132.75 530.8125 135.800781 533.265625 138.90625 C 533.601562 139.269531 534.113281 139.925781 534.632812 140.578125 Z M 524.703125 148.445312 " fill-opacity="1" fill-rule="nonzero"/><path fill="#000000" d="M 50.570312 434.511719 C 49.0625 431.222656 47.617188 427.902344 46.238281 424.554688 C 44.855469 421.207031 43.539062 417.835938 42.285156 414.4375 C 41.035156 411.042969 39.847656 407.621094 38.722656 404.179688 C 37.601562 400.738281 36.542969 397.277344 35.554688 393.792969 C 34.5625 390.3125 33.636719 386.8125 32.78125 383.292969 C 31.921875 379.777344 31.132812 376.242188 30.410156 372.695312 C 29.6875 369.148438 29.03125 365.585938 28.441406 362.015625 C 27.855469 358.441406 27.335938 354.859375 26.886719 351.265625 C 26.433594 347.675781 26.050781 344.074219 25.738281 340.46875 C 25.421875 336.859375 25.179688 333.25 25 329.632812 C 24.824219 326.015625 24.71875 322.398438 24.679688 318.777344 C 24.640625 315.15625 24.667969 311.535156 24.769531 307.917969 C 24.867188 304.296875 25.035156 300.679688 25.273438 297.066406 C 25.507812 293.457031 25.8125 289.847656 26.1875 286.246094 C 26.5625 282.644531 27.003906 279.050781 27.515625 275.46875 C 28.027344 271.882812 28.605469 268.308594 29.25 264.746094 C 29.898438 261.183594 30.613281 257.636719 31.394531 254.101562 C 32.175781 250.566406 33.027344 247.046875 33.941406 243.542969 C 34.855469 240.039062 35.839844 236.554688 36.886719 233.089844 C 37.9375 229.625 39.050781 226.179688 40.230469 222.757812 C 41.410156 219.335938 42.65625 215.933594 43.964844 212.558594 C 45.273438 209.183594 46.644531 205.835938 48.082031 202.511719 C 49.519531 199.1875 51.019531 195.894531 52.582031 192.625 C 54.140625 189.359375 55.765625 186.125 57.453125 182.921875 C 59.136719 179.714844 60.882812 176.542969 62.6875 173.40625 C 64.496094 170.269531 66.359375 167.164062 68.285156 164.097656 C 70.207031 161.03125 72.1875 158.003906 74.230469 155.011719 C 76.269531 152.019531 78.363281 149.066406 80.515625 146.15625 C 82.667969 143.246094 84.875 140.375 87.136719 137.546875 C 89.394531 134.71875 91.710938 131.933594 94.078125 129.195312 C 96.445312 126.457031 98.863281 123.761719 101.332031 121.113281 C 103.800781 118.46875 106.320312 115.867188 108.890625 113.316406 L 117.757812 122.3125 C 115.300781 124.75 112.894531 127.234375 110.535156 129.761719 C 108.175781 132.292969 105.867188 134.867188 103.605469 137.484375 C 101.34375 140.101562 99.132812 142.761719 96.972656 145.464844 C 94.8125 148.167969 92.703125 150.910156 90.648438 153.691406 C 88.59375 156.472656 86.589844 159.292969 84.640625 162.152344 C 82.691406 165.011719 80.800781 167.90625 78.960938 170.835938 C 77.121094 173.765625 75.339844 176.730469 73.613281 179.730469 C 71.890625 182.726562 70.222656 185.757812 68.613281 188.820312 C 67 191.882812 65.449219 194.972656 63.957031 198.09375 C 62.464844 201.214844 61.03125 204.363281 59.660156 207.539062 C 58.285156 210.714844 56.976562 213.914062 55.722656 217.140625 C 54.472656 220.367188 53.285156 223.613281 52.15625 226.882812 C 51.03125 230.15625 49.964844 233.445312 48.964844 236.757812 C 47.960938 240.070312 47.023438 243.398438 46.148438 246.746094 C 45.273438 250.09375 44.460938 253.453125 43.714844 256.832031 C 42.96875 260.210938 42.285156 263.601562 41.667969 267.003906 C 41.046875 270.410156 40.496094 273.824219 40.007812 277.25 C 39.519531 280.671875 39.097656 284.105469 38.738281 287.546875 C 38.378906 290.988281 38.089844 294.433594 37.863281 297.886719 C 37.636719 301.339844 37.476562 304.792969 37.378906 308.253906 C 37.285156 311.710938 37.257812 315.167969 37.292969 318.628906 C 37.332031 322.089844 37.433594 325.546875 37.601562 329 C 37.769531 332.457031 38.003906 335.90625 38.304688 339.355469 C 38.605469 342.800781 38.96875 346.242188 39.398438 349.671875 C 39.832031 353.105469 40.328125 356.527344 40.886719 359.941406 C 41.449219 363.355469 42.074219 366.757812 42.765625 370.148438 C 43.457031 373.539062 44.210938 376.914062 45.03125 380.273438 C 45.847656 383.636719 46.730469 386.980469 47.675781 390.308594 C 48.625 393.636719 49.632812 396.945312 50.707031 400.234375 C 51.777344 403.523438 52.914062 406.789062 54.109375 410.035156 C 55.304688 413.28125 56.5625 416.503906 57.882812 419.703125 C 59.203125 422.898438 60.582031 426.070312 62.023438 429.21875 Z M 50.570312 434.511719 " fill-opacity="1" fill-rule="nonzero"/><path fill="#000000" d="M 550.335938 600.609375 L 68.988281 600.609375 C 68.367188 600.609375 67.746094 600.578125 67.125 600.519531 C 66.507812 600.457031 65.890625 600.367188 65.28125 600.246094 C 64.671875 600.125 64.070312 599.972656 63.472656 599.792969 C 62.878906 599.609375 62.292969 599.402344 61.71875 599.164062 C 61.140625 598.925781 60.582031 598.660156 60.03125 598.367188 C 59.484375 598.074219 58.949219 597.753906 58.433594 597.40625 C 57.914062 597.0625 57.414062 596.691406 56.933594 596.296875 C 56.453125 595.902344 55.992188 595.484375 55.554688 595.042969 C 55.113281 594.605469 54.695312 594.144531 54.300781 593.660156 C 53.90625 593.179688 53.535156 592.683594 53.191406 592.164062 C 52.84375 591.648438 52.523438 591.113281 52.230469 590.566406 C 51.9375 590.015625 51.671875 589.453125 51.433594 588.878906 C 51.195312 588.304688 50.988281 587.71875 50.804688 587.125 C 50.625 586.527344 50.472656 585.925781 50.351562 585.3125 C 50.230469 584.703125 50.140625 584.089844 50.078125 583.46875 C 50.019531 582.851562 49.988281 582.230469 49.988281 581.605469 L 49.988281 277.5625 C 49.988281 276.941406 50.019531 276.320312 50.078125 275.699219 C 50.140625 275.082031 50.230469 274.464844 50.351562 273.855469 C 50.472656 273.246094 50.625 272.644531 50.804688 272.046875 C 50.988281 271.453125 51.195312 270.867188 51.433594 270.292969 C 51.671875 269.714844 51.9375 269.15625 52.230469 268.605469 C 52.523438 268.058594 52.84375 267.523438 53.191406 267.007812 C 53.535156 266.488281 53.90625 265.988281 54.300781 265.507812 C 54.695312 265.027344 55.113281 264.566406 55.554688 264.125 C 55.992188 263.6875 56.453125 263.269531 56.933594 262.875 C 57.414062 262.480469 57.914062 262.109375 58.433594 261.761719 C 58.949219 261.417969 59.484375 261.097656 60.03125 260.804688 C 60.582031 260.511719 61.140625 260.246094 61.71875 260.007812 C 62.292969 259.769531 62.878906 259.558594 63.472656 259.378906 C 64.070312 259.199219 64.671875 259.046875 65.28125 258.925781 C 65.890625 258.804688 66.507812 258.714844 67.125 258.652344 C 67.746094 258.589844 68.367188 258.5625 68.988281 258.5625 L 404.664062 258.5625 L 404.664062 271.230469 L 68.988281 271.230469 C 68.574219 271.230469 68.160156 271.269531 67.753906 271.351562 C 67.34375 271.433594 66.949219 271.550781 66.566406 271.710938 C 66.179688 271.871094 65.816406 272.066406 65.46875 272.296875 C 65.125 272.527344 64.804688 272.789062 64.511719 273.085938 C 64.214844 273.378906 63.953125 273.699219 63.722656 274.042969 C 63.492188 274.390625 63.296875 274.753906 63.136719 275.140625 C 62.976562 275.523438 62.859375 275.917969 62.777344 276.328125 C 62.695312 276.734375 62.65625 277.148438 62.65625 277.5625 L 62.65625 581.605469 C 62.65625 582.023438 62.695312 582.433594 62.777344 582.84375 C 62.859375 583.25 62.976562 583.648438 63.136719 584.03125 C 63.296875 584.414062 63.492188 584.78125 63.722656 585.125 C 63.953125 585.472656 64.214844 585.792969 64.511719 586.085938 C 64.804688 586.378906 65.125 586.640625 65.46875 586.875 C 65.816406 587.105469 66.179688 587.300781 66.566406 587.457031 C 66.949219 587.617188 67.34375 587.738281 67.753906 587.820312 C 68.160156 587.902344 68.574219 587.941406 68.988281 587.941406 L 550.335938 587.941406 C 550.75 587.941406 551.164062 587.902344 551.570312 587.820312 C 551.976562 587.738281 552.375 587.617188 552.757812 587.457031 C 553.144531 587.300781 553.507812 587.105469 553.855469 586.875 C 554.199219 586.640625 554.519531 586.378906 554.8125 586.085938 C 555.109375 585.792969 555.371094 585.472656 555.601562 585.125 C 555.832031 584.78125 556.027344 584.414062 556.1875 584.03125 C 556.34375 583.648438 556.464844 583.25 556.546875 582.84375 C 556.628906 582.433594 556.667969 582.023438 556.667969 581.605469 L 556.667969 277.5625 C 556.667969 277.148438 556.628906 276.734375 556.546875 276.328125 C 556.464844 275.917969 556.34375 275.523438 556.1875 275.140625 C 556.027344 274.753906 555.832031 274.390625 555.601562 274.042969 C 555.371094 273.699219 555.109375 273.378906 554.8125 273.085938 C 554.519531 272.789062 554.199219 272.527344 553.855469 272.296875 C 553.507812 272.066406 553.144531 271.871094 552.757812 271.710938 C 552.375 271.550781 551.976562 271.433594 551.570312 271.351562 C 551.164062 271.269531 550.75 271.230469 550.335938 271.230469 L 461.664062 271.230469 L 461.664062 258.5625 L 550.335938 258.5625 C 550.957031 258.5625 551.578125 258.589844 552.199219 258.652344 C 552.816406 258.714844 553.429688 258.804688 554.042969 258.925781 C 554.652344 259.046875 555.253906 259.199219 555.851562 259.378906 C 556.445312 259.558594 557.03125 259.769531 557.605469 260.007812 C 558.179688 260.246094 558.742188 260.511719 559.292969 260.804688 C 559.839844 261.097656 560.375 261.417969 560.890625 261.761719 C 561.410156 262.109375 561.90625 262.480469 562.390625 262.875 C 562.871094 263.269531 563.332031 263.6875 563.769531 264.125 C 564.210938 264.566406 564.628906 265.027344 565.023438 265.507812 C 565.417969 265.988281 565.789062 266.488281 566.132812 267.007812 C 566.480469 267.523438 566.796875 268.054688 567.09375 268.605469 C 567.386719 269.15625 567.652344 269.714844 567.890625 270.292969 C 568.128906 270.867188 568.335938 271.453125 568.515625 272.046875 C 568.699219 272.644531 568.847656 273.246094 568.96875 273.855469 C 569.089844 274.464844 569.183594 275.082031 569.242188 275.699219 C 569.304688 276.320312 569.335938 276.941406 569.335938 277.5625 L 569.335938 581.605469 C 569.335938 582.230469 569.304688 582.851562 569.242188 583.46875 C 569.183594 584.089844 569.089844 584.703125 568.96875 585.3125 C 568.847656 585.925781 568.699219 586.527344 568.515625 587.125 C 568.335938 587.71875 568.128906 588.304688 567.890625 588.878906 C 567.652344 589.453125 567.386719 590.015625 567.09375 590.566406 C 566.796875 591.113281 566.480469 591.648438 566.132812 592.164062 C 565.789062 592.683594 565.417969 593.179688 565.023438 593.660156 C 564.628906 594.144531 564.210938 594.605469 563.769531 595.042969 C 563.332031 595.484375 562.871094 595.902344 562.390625 596.296875 C 561.90625 596.691406 561.410156 597.0625 560.890625 597.40625 C 560.375 597.753906 559.839844 598.074219 559.292969 598.367188 C 558.742188 598.660156 558.179688 598.925781 557.605469 599.164062 C 557.03125 599.402344 556.445312 599.609375 555.851562 599.792969 C 555.253906 599.972656 554.652344 600.125 554.042969 600.246094 C 553.429688 600.367188 552.816406 600.457031 552.199219 600.519531 C 551.578125 600.578125 550.957031 600.609375 550.335938 600.609375 Z M 550.335938 600.609375 " fill-opacity="1" fill-rule="nonzero"/><path fill="#000000" d="M 537.667969 575.273438 L 119.65625 575.273438 C 119.242188 575.273438 118.828125 575.230469 118.421875 575.152344 C 118.011719 575.070312 117.617188 574.949219 117.234375 574.789062 C 116.847656 574.632812 116.484375 574.4375 116.136719 574.207031 C 115.792969 573.972656 115.472656 573.710938 115.179688 573.417969 C 114.882812 573.125 114.621094 572.804688 114.390625 572.457031 C 114.160156 572.113281 113.964844 571.746094 113.804688 571.363281 C 113.644531 570.976562 113.527344 570.582031 113.445312 570.175781 C 113.363281 569.765625 113.324219 569.355469 113.324219 568.9375 L 113.324219 290.230469 C 113.324219 289.816406 113.363281 289.402344 113.445312 288.996094 C 113.527344 288.589844 113.644531 288.191406 113.804688 287.808594 C 113.964844 287.421875 114.160156 287.058594 114.390625 286.710938 C 114.621094 286.367188 114.882812 286.046875 115.179688 285.753906 C 115.472656 285.457031 115.792969 285.195312 116.136719 284.964844 C 116.484375 284.734375 116.847656 284.539062 117.234375 284.378906 C 117.617188 284.21875 118.011719 284.101562 118.421875 284.019531 C 118.828125 283.9375 119.242188 283.898438 119.65625 283.898438 L 379.332031 283.898438 L 379.332031 296.566406 L 125.988281 296.566406 L 125.988281 562.605469 L 531.335938 562.605469 L 531.335938 296.566406 L 436.332031 296.566406 L 436.332031 283.898438 L 537.667969 283.898438 C 538.082031 283.898438 538.496094 283.9375 538.902344 284.019531 C 539.3125 284.101562 539.707031 284.21875 540.089844 284.378906 C 540.476562 284.539062 540.839844 284.734375 541.1875 284.964844 C 541.53125 285.195312 541.851562 285.457031 542.144531 285.753906 C 542.441406 286.046875 542.703125 286.367188 542.933594 286.710938 C 543.164062 287.058594 543.359375 287.421875 543.519531 287.808594 C 543.679688 288.191406 543.796875 288.589844 543.878906 288.996094 C 543.960938 289.402344 544 289.816406 544 290.230469 L 544 568.9375 C 544 569.355469 543.960938 569.765625 543.878906 570.175781 C 543.796875 570.582031 543.679688 570.976562 543.519531 571.363281 C 543.359375 571.746094 543.164062 572.113281 542.933594 572.457031 C 542.703125 572.804688 542.441406 573.125 542.144531 573.417969 C 541.851562 573.710938 541.53125 573.972656 541.1875 574.207031 C 540.839844 574.4375 540.476562 574.632812 540.089844 574.789062 C 539.707031 574.949219 539.3125 575.070312 538.902344 575.152344 C 538.496094 575.230469 538.082031 575.273438 537.667969 575.273438 Z M 537.667969 575.273438 " fill-opacity="1" fill-rule="nonzero"/><path fill="#000000" d="M 87.988281 467.589844 C 86.746094 467.589844 85.503906 467.53125 84.265625 467.40625 C 83.027344 467.285156 81.796875 467.101562 80.574219 466.859375 C 79.355469 466.617188 78.148438 466.316406 76.957031 465.953125 C 75.765625 465.59375 74.597656 465.175781 73.445312 464.699219 C 72.296875 464.222656 71.171875 463.691406 70.074219 463.101562 C 68.976562 462.515625 67.910156 461.878906 66.875 461.183594 C 65.84375 460.492188 64.84375 459.753906 63.882812 458.964844 C 62.917969 458.175781 62 457.339844 61.117188 456.460938 C 60.238281 455.578125 59.402344 454.65625 58.613281 453.695312 C 57.824219 452.734375 57.082031 451.734375 56.390625 450.699219 C 55.699219 449.664062 55.0625 448.597656 54.476562 447.5 C 53.886719 446.402344 53.355469 445.277344 52.878906 444.128906 C 52.40625 442.980469 51.984375 441.808594 51.625 440.617188 C 51.261719 439.425781 50.960938 438.21875 50.71875 437 C 50.476562 435.777344 50.292969 434.550781 50.171875 433.308594 C 50.050781 432.070312 49.988281 430.828125 49.988281 429.585938 C 49.988281 428.339844 50.050781 427.097656 50.171875 425.859375 C 50.292969 424.621094 50.476562 423.390625 50.71875 422.171875 C 50.960938 420.949219 51.261719 419.742188 51.625 418.550781 C 51.984375 417.363281 52.40625 416.191406 52.878906 415.039062 C 53.355469 413.890625 53.886719 412.765625 54.476562 411.667969 C 55.0625 410.570312 55.699219 409.503906 56.390625 408.46875 C 57.082031 407.433594 57.824219 406.4375 58.613281 405.476562 C 59.402344 404.511719 60.238281 403.589844 61.117188 402.710938 C 62 401.832031 62.917969 400.996094 63.882812 400.207031 C 64.84375 399.417969 65.84375 398.675781 66.875 397.984375 C 67.910156 397.292969 68.976562 396.652344 70.074219 396.066406 C 71.171875 395.480469 72.296875 394.949219 73.445312 394.472656 C 74.597656 393.996094 75.765625 393.578125 76.957031 393.214844 C 78.148438 392.855469 79.355469 392.554688 80.574219 392.308594 C 81.796875 392.066406 83.027344 391.882812 84.265625 391.761719 C 85.503906 391.640625 86.746094 391.578125 87.988281 391.578125 C 89.234375 391.578125 90.476562 391.640625 91.714844 391.761719 C 92.953125 391.882812 94.183594 392.066406 95.402344 392.308594 C 96.625 392.554688 97.828125 392.855469 99.019531 393.214844 C 100.210938 393.578125 101.382812 393.996094 102.53125 394.472656 C 103.679688 394.949219 104.804688 395.480469 105.902344 396.066406 C 107 396.652344 108.066406 397.292969 109.101562 397.984375 C 110.136719 398.675781 111.132812 399.417969 112.097656 400.207031 C 113.058594 400.996094 113.980469 401.832031 114.859375 402.710938 C 115.738281 403.589844 116.574219 404.511719 117.363281 405.476562 C 118.152344 406.4375 118.894531 407.433594 119.585938 408.46875 C 120.277344 409.503906 120.917969 410.570312 121.503906 411.667969 C 122.089844 412.765625 122.621094 413.890625 123.097656 415.039062 C 123.574219 416.191406 123.992188 417.363281 124.355469 418.550781 C 124.714844 419.742188 125.015625 420.949219 125.261719 422.171875 C 125.503906 423.390625 125.683594 424.621094 125.808594 425.859375 C 125.929688 427.097656 125.988281 428.339844 125.988281 429.585938 C 125.988281 430.828125 125.925781 432.070312 125.804688 433.308594 C 125.679688 434.546875 125.496094 435.777344 125.253906 436.996094 C 125.011719 438.21875 124.707031 439.421875 124.34375 440.613281 C 123.984375 441.804688 123.5625 442.972656 123.085938 444.125 C 122.609375 445.273438 122.078125 446.394531 121.492188 447.492188 C 120.90625 448.589844 120.265625 449.65625 119.574219 450.691406 C 118.882812 451.726562 118.140625 452.722656 117.351562 453.683594 C 116.5625 454.648438 115.726562 455.566406 114.847656 456.449219 C 113.96875 457.328125 113.046875 458.164062 112.085938 458.953125 C 111.125 459.742188 110.125 460.480469 109.09375 461.171875 C 108.058594 461.867188 106.992188 462.503906 105.894531 463.089844 C 104.796875 463.679688 103.675781 464.210938 102.527344 464.6875 C 101.375 465.164062 100.207031 465.582031 99.015625 465.945312 C 97.824219 466.308594 96.621094 466.609375 95.398438 466.855469 C 94.179688 467.097656 92.949219 467.28125 91.710938 467.402344 C 90.472656 467.527344 89.234375 467.589844 87.988281 467.589844 Z M 87.988281 404.25 C 87.160156 404.25 86.332031 404.289062 85.503906 404.371094 C 84.679688 404.453125 83.859375 404.574219 83.046875 404.734375 C 82.234375 404.898438 81.429688 405.097656 80.636719 405.339844 C 79.839844 405.578125 79.0625 405.859375 78.292969 406.175781 C 77.527344 406.496094 76.777344 406.847656 76.046875 407.238281 C 75.316406 407.632812 74.605469 408.058594 73.914062 408.519531 C 73.222656 408.980469 72.558594 409.472656 71.917969 410 C 71.277344 410.527344 70.660156 411.082031 70.074219 411.667969 C 69.488281 412.257812 68.933594 412.871094 68.40625 413.511719 C 67.878906 414.152344 67.386719 414.820312 66.925781 415.507812 C 66.464844 416.199219 66.039062 416.910156 65.644531 417.640625 C 65.253906 418.375 64.902344 419.121094 64.582031 419.890625 C 64.265625 420.65625 63.988281 421.4375 63.746094 422.230469 C 63.503906 423.023438 63.304688 423.828125 63.140625 424.640625 C 62.980469 425.457031 62.859375 426.277344 62.777344 427.101562 C 62.695312 427.925781 62.65625 428.753906 62.65625 429.585938 C 62.65625 430.414062 62.695312 431.242188 62.777344 432.070312 C 62.859375 432.894531 62.980469 433.714844 63.140625 434.527344 C 63.304688 435.34375 63.503906 436.144531 63.746094 436.941406 C 63.988281 437.734375 64.265625 438.515625 64.582031 439.28125 C 64.902344 440.046875 65.253906 440.796875 65.644531 441.527344 C 66.039062 442.261719 66.464844 442.972656 66.925781 443.660156 C 67.386719 444.351562 67.878906 445.015625 68.40625 445.660156 C 68.933594 446.300781 69.488281 446.914062 70.074219 447.5 C 70.660156 448.085938 71.277344 448.644531 71.917969 449.171875 C 72.558594 449.695312 73.222656 450.191406 73.914062 450.652344 C 74.605469 451.113281 75.316406 451.539062 76.046875 451.929688 C 76.777344 452.320312 77.527344 452.675781 78.292969 452.992188 C 79.0625 453.3125 79.839844 453.589844 80.636719 453.832031 C 81.429688 454.070312 82.234375 454.273438 83.046875 454.433594 C 83.859375 454.597656 84.679688 454.71875 85.503906 454.800781 C 86.332031 454.882812 87.160156 454.921875 87.988281 454.921875 C 88.820312 454.921875 89.644531 454.882812 90.472656 454.800781 C 91.296875 454.71875 92.117188 454.597656 92.929688 454.433594 C 93.746094 454.273438 94.550781 454.070312 95.34375 453.832031 C 96.136719 453.589844 96.917969 453.3125 97.683594 452.992188 C 98.449219 452.675781 99.199219 452.320312 99.929688 451.929688 C 100.664062 451.539062 101.375 451.113281 102.0625 450.652344 C 102.753906 450.191406 103.417969 449.695312 104.0625 449.171875 C 104.703125 448.644531 105.316406 448.085938 105.902344 447.5 C 106.488281 446.914062 107.046875 446.300781 107.574219 445.660156 C 108.097656 445.015625 108.59375 444.351562 109.054688 443.660156 C 109.515625 442.972656 109.941406 442.261719 110.332031 441.527344 C 110.722656 440.796875 111.078125 440.046875 111.394531 439.28125 C 111.710938 438.515625 111.992188 437.734375 112.230469 436.941406 C 112.472656 436.144531 112.675781 435.34375 112.835938 434.527344 C 113 433.714844 113.121094 432.894531 113.199219 432.070312 C 113.28125 431.242188 113.324219 430.414062 113.324219 429.585938 C 113.324219 428.753906 113.28125 427.925781 113.199219 427.101562 C 113.121094 426.277344 113 425.457031 112.835938 424.640625 C 112.675781 423.828125 112.472656 423.023438 112.230469 422.230469 C 111.992188 421.4375 111.710938 420.65625 111.394531 419.890625 C 111.078125 419.121094 110.722656 418.375 110.332031 417.640625 C 109.941406 416.910156 109.515625 416.199219 109.054688 415.507812 C 108.59375 414.820312 108.097656 414.152344 107.574219 413.511719 C 107.046875 412.871094 106.488281 412.257812 105.902344 411.667969 C 105.316406 411.082031 104.703125 410.527344 104.0625 410 C 103.417969 409.472656 102.753906 408.980469 102.0625 408.519531 C 101.375 408.058594 100.664062 407.632812 99.929688 407.238281 C 99.199219 406.847656 98.449219 406.496094 97.683594 406.175781 C 96.917969 405.859375 96.136719 405.578125 95.34375 405.339844 C 94.550781 405.097656 93.746094 404.898438 92.929688 404.734375 C 92.117188 404.574219 91.296875 404.453125 90.472656 404.371094 C 89.644531 404.289062 88.820312 404.25 87.988281 404.25 Z M 87.988281 404.25 " fill-opacity="1" fill-rule="nonzero"/><path fill="#000000" d="M 56.320312 302.898438 L 119.65625 302.898438 L 119.65625 315.570312 L 56.320312 315.570312 Z M 56.320312 302.898438 " fill-opacity="1" fill-rule="nonzero"/><path fill="#000000" d="M 56.320312 366.242188 L 119.65625 366.242188 L 119.65625 378.910156 L 56.320312 378.910156 Z M 56.320312 366.242188 " fill-opacity="1" fill-rule="nonzero"/><path fill="#000000" d="M 56.320312 480.257812 L 119.65625 480.257812 L 119.65625 492.925781 L 56.320312 492.925781 Z M 56.320312 480.257812 " fill-opacity="1" fill-rule="nonzero"/><path fill="#000000" d="M 56.320312 543.601562 L 119.65625 543.601562 L 119.65625 556.269531 L 56.320312 556.269531 Z M 56.320312 543.601562 " fill-opacity="1" fill-rule="nonzero"/><path fill="#000000" d="M 56.320312 334.570312 L 119.65625 334.570312 L 119.65625 347.238281 L 56.320312 347.238281 Z M 56.320312 334.570312 " fill-opacity="1" fill-rule="nonzero"/><path fill="#000000" d="M 56.320312 511.929688 L 119.65625 511.929688 L 119.65625 524.597656 L 56.320312 524.597656 Z M 56.320312 511.929688 " fill-opacity="1" fill-rule="nonzero"/><path fill="#000000" d="M 81.65625 309.234375 L 94.324219 309.234375 L 94.324219 372.578125 L 81.65625 372.578125 Z M 81.65625 309.234375 " fill-opacity="1" fill-rule="nonzero"/><path fill="#000000" d="M 81.65625 486.59375 L 94.324219 486.59375 L 94.324219 549.9375 L 81.65625 549.9375 Z M 81.65625 486.59375 " fill-opacity="1" fill-rule="nonzero"/><path fill="#000000" d="M 351.652344 379.671875 C 351.160156 379.671875 350.675781 379.613281 350.195312 379.5 C 349.128906 379.25 348.195312 378.753906 347.382812 378.015625 C 346.574219 377.277344 345.996094 376.390625 345.648438 375.351562 L 341.628906 363.316406 L 334.734375 356.429688 L 322.703125 352.402344 C 322.449219 352.316406 322.199219 352.214844 321.957031 352.097656 C 321.714844 351.980469 321.484375 351.851562 321.257812 351.703125 C 321.035156 351.554688 320.820312 351.394531 320.613281 351.222656 C 320.410156 351.046875 320.21875 350.863281 320.035156 350.664062 C 319.855469 350.464844 319.6875 350.253906 319.535156 350.035156 C 319.378906 349.816406 319.238281 349.585938 319.113281 349.351562 C 318.988281 349.113281 318.878906 348.867188 318.785156 348.617188 C 318.691406 348.363281 318.613281 348.109375 318.550781 347.847656 C 318.492188 347.585938 318.445312 347.320312 318.417969 347.054688 C 318.390625 346.785156 318.378906 346.519531 318.386719 346.25 C 318.390625 345.980469 318.414062 345.714844 318.457031 345.449219 C 318.496094 345.183594 318.550781 344.921875 318.625 344.664062 C 318.699219 344.40625 318.789062 344.152344 318.894531 343.90625 C 319 343.660156 319.121094 343.421875 319.257812 343.1875 C 319.394531 342.957031 319.542969 342.734375 319.707031 342.523438 C 319.871094 342.308594 320.050781 342.109375 320.238281 341.917969 L 535.199219 126.933594 C 535.492188 126.640625 535.8125 126.378906 536.15625 126.148438 C 536.503906 125.917969 536.867188 125.722656 537.253906 125.5625 C 537.636719 125.402344 538.03125 125.285156 538.441406 125.203125 C 538.847656 125.121094 539.261719 125.082031 539.675781 125.082031 C 540.089844 125.082031 540.503906 125.121094 540.910156 125.203125 C 541.320312 125.285156 541.714844 125.402344 542.097656 125.5625 C 542.484375 125.722656 542.847656 125.917969 543.195312 126.148438 C 543.539062 126.378906 543.859375 126.640625 544.152344 126.933594 L 571.070312 153.855469 C 571.363281 154.148438 571.628906 154.46875 571.859375 154.816406 C 572.089844 155.160156 572.285156 155.527344 572.441406 155.910156 C 572.601562 156.292969 572.722656 156.691406 572.804688 157.097656 C 572.882812 157.507812 572.925781 157.917969 572.925781 158.332031 C 572.925781 158.75 572.882812 159.160156 572.804688 159.570312 C 572.722656 159.976562 572.601562 160.375 572.441406 160.757812 C 572.285156 161.140625 572.089844 161.507812 571.859375 161.851562 C 571.628906 162.199219 571.363281 162.519531 571.070312 162.8125 L 356.128906 377.820312 C 355.535156 378.414062 354.851562 378.871094 354.074219 379.191406 C 353.300781 379.511719 352.492188 379.671875 351.652344 379.671875 Z M 336.453125 343.660156 L 340.171875 344.929688 C 341.113281 345.242188 341.9375 345.75 342.640625 346.453125 L 351.632812 355.449219 C 352.335938 356.152344 352.84375 356.976562 353.160156 357.917969 L 354.425781 361.644531 L 557.65625 158.351562 L 539.695312 140.390625 Z M 336.453125 343.660156 " fill-opacity="1" fill-rule="nonzero"/><path fill="#000000" d="M 306.8125 397.597656 C 306.554688 397.597656 306.296875 397.582031 306.042969 397.550781 C 305.785156 397.519531 305.53125 397.472656 305.28125 397.410156 C 305.03125 397.347656 304.785156 397.269531 304.546875 397.179688 C 304.304688 397.085938 304.070312 396.980469 303.84375 396.859375 C 303.613281 396.738281 303.394531 396.605469 303.183594 396.457031 C 302.972656 396.308594 302.769531 396.148438 302.578125 395.976562 C 302.386719 395.804688 302.207031 395.621094 302.039062 395.425781 C 301.867188 395.234375 301.710938 395.03125 301.566406 394.816406 C 301.421875 394.601562 301.289062 394.382812 301.171875 394.152344 C 301.054688 393.921875 300.953125 393.6875 300.863281 393.445312 C 300.773438 393.203125 300.699219 392.957031 300.640625 392.707031 C 300.582031 392.453125 300.539062 392.199219 300.511719 391.945312 C 300.484375 391.6875 300.472656 391.429688 300.476562 391.171875 C 300.480469 390.914062 300.5 390.660156 300.535156 390.402344 C 300.570312 390.148438 300.621094 389.894531 300.6875 389.644531 C 300.75 389.398438 300.832031 389.152344 300.929688 388.914062 L 318.851562 344.066406 L 330.621094 348.765625 L 318.175781 379.898438 L 349.304688 367.453125 L 353.996094 379.222656 L 309.15625 397.148438 C 308.402344 397.445312 307.621094 397.597656 306.8125 397.597656 Z M 306.8125 397.597656 " fill-opacity="1" fill-rule="nonzero"/><path fill="#000000" d="M 508.363281 162.835938 L 517.320312 153.878906 L 544.175781 180.734375 L 535.21875 189.691406 Z M 508.363281 162.835938 " fill-opacity="1" fill-rule="nonzero"/><path fill="#000000" d="M 494.9375 176.261719 L 503.894531 167.304688 L 530.75 194.164062 L 521.792969 203.121094 Z M 494.9375 176.261719 " fill-opacity="1" fill-rule="nonzero"/><path fill="#000000" d="M 227.324219 182.550781 L 113.324219 182.550781 C 112.90625 182.550781 112.496094 182.507812 112.085938 182.429688 C 111.679688 182.347656 111.285156 182.226562 110.898438 182.066406 C 110.515625 181.910156 110.148438 181.714844 109.804688 181.480469 C 109.457031 181.25 109.136719 180.988281 108.84375 180.695312 C 108.550781 180.398438 108.289062 180.082031 108.058594 179.734375 C 107.824219 179.390625 107.628906 179.023438 107.472656 178.640625 C 107.3125 178.253906 107.191406 177.859375 107.109375 177.453125 C 107.03125 177.042969 106.988281 176.632812 106.988281 176.214844 L 106.988281 62.199219 C 106.988281 61.785156 107.03125 61.371094 107.109375 60.964844 C 107.191406 60.554688 107.3125 60.160156 107.472656 59.773438 C 107.628906 59.390625 107.824219 59.027344 108.058594 58.679688 C 108.289062 58.335938 108.550781 58.015625 108.84375 57.71875 C 109.136719 57.425781 109.457031 57.164062 109.804688 56.933594 C 110.148438 56.703125 110.515625 56.507812 110.898438 56.347656 C 111.285156 56.1875 111.679688 56.066406 112.085938 55.988281 C 112.496094 55.90625 112.90625 55.863281 113.324219 55.863281 L 227.324219 55.863281 C 227.742188 55.863281 228.152344 55.90625 228.5625 55.988281 C 228.96875 56.066406 229.367188 56.1875 229.75 56.347656 C 230.132812 56.507812 230.5 56.703125 230.84375 56.933594 C 231.191406 57.164062 231.511719 57.425781 231.804688 57.71875 C 232.097656 58.015625 232.359375 58.335938 232.59375 58.679688 C 232.824219 59.027344 233.019531 59.390625 233.175781 59.773438 C 233.335938 60.160156 233.457031 60.554688 233.539062 60.964844 C 233.617188 61.371094 233.660156 61.785156 233.660156 62.199219 L 233.660156 176.214844 C 233.660156 176.632812 233.617188 177.042969 233.539062 177.453125 C 233.457031 177.859375 233.335938 178.253906 233.175781 178.640625 C 233.019531 179.023438 232.824219 179.390625 232.59375 179.734375 C 232.359375 180.082031 232.097656 180.398438 231.804688 180.695312 C 231.511719 180.988281 231.191406 181.25 230.84375 181.480469 C 230.5 181.714844 230.132812 181.910156 229.75 182.066406 C 229.367188 182.226562 228.96875 182.347656 228.5625 182.429688 C 228.152344 182.507812 227.742188 182.550781 227.324219 182.550781 Z M 119.65625 169.882812 L 220.992188 169.882812 L 220.992188 68.535156 L 119.65625 68.535156 Z M 119.65625 169.882812 " fill-opacity="1" fill-rule="nonzero"/><path fill="#000000" d="M 227.324219 239.558594 C 225.253906 239.554688 223.183594 239.453125 221.121094 239.246094 C 219.058594 239.042969 217.007812 238.734375 214.976562 238.328125 C 212.941406 237.921875 210.933594 237.417969 208.949219 236.816406 C 206.964844 236.210938 205.015625 235.511719 203.101562 234.71875 C 201.183594 233.921875 199.3125 233.035156 197.484375 232.058594 C 195.65625 231.078125 193.878906 230.015625 192.15625 228.863281 C 190.429688 227.707031 188.769531 226.472656 187.164062 225.160156 C 185.5625 223.84375 184.027344 222.453125 182.5625 220.984375 C 181.09375 219.519531 179.703125 217.984375 178.390625 216.378906 C 177.074219 214.777344 175.839844 213.113281 174.6875 211.390625 C 173.535156 209.667969 172.46875 207.890625 171.488281 206.0625 C 170.511719 204.234375 169.625 202.359375 168.832031 200.445312 C 168.035156 198.527344 167.335938 196.578125 166.734375 194.59375 C 166.128906 192.609375 165.625 190.601562 165.21875 188.566406 C 164.8125 186.535156 164.507812 184.484375 164.300781 182.421875 C 164.097656 180.359375 163.992188 178.289062 163.992188 176.214844 L 176.65625 176.214844 C 176.65625 177.875 176.738281 179.53125 176.902344 181.183594 C 177.066406 182.835938 177.308594 184.472656 177.632812 186.101562 C 177.957031 187.730469 178.359375 189.335938 178.839844 190.925781 C 179.320312 192.511719 179.878906 194.074219 180.515625 195.609375 C 181.148438 197.140625 181.859375 198.640625 182.640625 200.101562 C 183.421875 201.566406 184.273438 202.988281 185.195312 204.367188 C 186.117188 205.75 187.105469 207.078125 188.160156 208.363281 C 189.210938 209.644531 190.324219 210.875 191.5 212.046875 C 192.671875 213.222656 193.898438 214.335938 195.183594 215.386719 C 196.464844 216.441406 197.796875 217.425781 199.175781 218.347656 C 200.554688 219.269531 201.976562 220.125 203.441406 220.90625 C 204.90625 221.6875 206.402344 222.398438 207.9375 223.03125 C 209.46875 223.667969 211.03125 224.226562 212.617188 224.707031 C 214.207031 225.1875 215.8125 225.59375 217.441406 225.914062 C 219.070312 226.238281 220.707031 226.484375 222.359375 226.644531 C 224.011719 226.808594 225.667969 226.890625 227.324219 226.890625 C 228.984375 226.890625 230.640625 226.808594 232.292969 226.644531 C 233.945312 226.484375 235.582031 226.238281 237.210938 225.914062 C 238.839844 225.59375 240.445312 225.1875 242.035156 224.707031 C 243.621094 224.226562 245.183594 223.667969 246.714844 223.03125 C 248.25 222.398438 249.746094 221.6875 251.210938 220.90625 C 252.675781 220.125 254.097656 219.269531 255.476562 218.347656 C 256.855469 217.425781 258.1875 216.441406 259.46875 215.386719 C 260.753906 214.335938 261.980469 213.222656 263.152344 212.046875 C 264.328125 210.875 265.441406 209.644531 266.492188 208.363281 C 267.546875 207.078125 268.53125 205.75 269.453125 204.367188 C 270.378906 202.988281 271.230469 201.566406 272.011719 200.101562 C 272.792969 198.640625 273.503906 197.140625 274.136719 195.609375 C 274.773438 194.074219 275.332031 192.511719 275.8125 190.925781 C 276.292969 189.335938 276.695312 187.730469 277.019531 186.101562 C 277.34375 184.472656 277.585938 182.835938 277.75 181.183594 C 277.914062 179.53125 277.996094 177.875 277.996094 176.214844 C 277.996094 174.554688 277.914062 172.898438 277.75 171.25 C 277.585938 169.597656 277.34375 167.957031 277.019531 166.328125 C 276.695312 164.703125 276.292969 163.09375 275.8125 161.503906 C 275.332031 159.917969 274.773438 158.355469 274.136719 156.824219 C 273.503906 155.289062 272.792969 153.792969 272.011719 152.328125 C 271.230469 150.863281 270.378906 149.441406 269.453125 148.0625 C 268.53125 146.683594 267.546875 145.351562 266.492188 144.066406 C 265.441406 142.785156 264.328125 141.558594 263.152344 140.382812 C 261.980469 139.210938 260.753906 138.097656 259.46875 137.042969 C 258.1875 135.992188 256.855469 135.003906 255.476562 134.082031 C 254.097656 133.160156 252.675781 132.308594 251.210938 131.523438 C 249.746094 130.742188 248.25 130.035156 246.714844 129.398438 C 245.183594 128.765625 243.621094 128.207031 242.035156 127.722656 C 240.445312 127.242188 238.839844 126.839844 237.210938 126.515625 C 235.582031 126.191406 233.945312 125.949219 232.292969 125.785156 C 230.640625 125.621094 228.984375 125.542969 227.324219 125.542969 L 227.324219 112.875 C 229.398438 112.875 231.46875 112.976562 233.53125 113.179688 C 235.597656 113.382812 237.644531 113.6875 239.679688 114.09375 C 241.714844 114.5 243.722656 115.003906 245.707031 115.605469 C 247.691406 116.207031 249.640625 116.90625 251.558594 117.699219 C 253.472656 118.496094 255.34375 119.382812 257.171875 120.359375 C 259.003906 121.335938 260.777344 122.402344 262.503906 123.554688 C 264.226562 124.707031 265.890625 125.941406 267.492188 127.257812 C 269.097656 128.574219 270.628906 129.964844 272.097656 131.433594 C 273.5625 132.898438 274.953125 134.433594 276.269531 136.039062 C 277.585938 137.640625 278.816406 139.304688 279.96875 141.03125 C 281.121094 142.753906 282.1875 144.53125 283.164062 146.363281 C 284.140625 148.191406 285.027344 150.0625 285.820312 151.980469 C 286.613281 153.898438 287.3125 155.847656 287.914062 157.832031 C 288.515625 159.816406 289.019531 161.828125 289.421875 163.859375 C 289.828125 165.894531 290.132812 167.945312 290.335938 170.007812 C 290.539062 172.074219 290.640625 174.140625 290.640625 176.214844 C 290.640625 178.289062 290.539062 180.359375 290.335938 182.421875 C 290.132812 184.488281 289.828125 186.535156 289.421875 188.570312 C 289.019531 190.605469 288.515625 192.613281 287.914062 194.597656 C 287.3125 196.582031 286.613281 198.535156 285.820312 200.449219 C 285.027344 202.367188 284.140625 204.238281 283.164062 206.070312 C 282.1875 207.898438 281.121094 209.675781 279.96875 211.398438 C 278.816406 213.125 277.585938 214.789062 276.269531 216.390625 C 274.953125 217.996094 273.5625 219.53125 272.097656 220.996094 C 270.628906 222.464844 269.097656 223.855469 267.492188 225.171875 C 265.890625 226.488281 264.226562 227.722656 262.503906 228.875 C 260.777344 230.027344 259.003906 231.09375 257.171875 232.070312 C 255.34375 233.050781 253.472656 233.9375 251.558594 234.730469 C 249.640625 235.523438 247.691406 236.222656 245.707031 236.824219 C 243.722656 237.429688 241.714844 237.933594 239.679688 238.335938 C 237.644531 238.742188 235.597656 239.046875 233.53125 239.25 C 231.46875 239.453125 229.398438 239.558594 227.324219 239.558594 Z M 227.324219 239.558594 " fill-opacity="1" fill-rule="nonzero"/><path fill="#000000" d="M 108.84375 66.679688 L 117.800781 57.71875 L 231.804688 171.738281 L 222.847656 180.695312 Z M 108.84375 66.679688 " fill-opacity="1" fill-rule="nonzero"/><path fill="#000000" d="M 146.847656 66.679688 L 155.804688 57.722656 L 231.808594 133.734375 L 222.851562 142.691406 Z M 146.847656 66.679688 " fill-opacity="1" fill-rule="nonzero"/><path fill="#000000" d="M 108.847656 104.683594 L 117.804688 95.726562 L 193.808594 171.738281 L 184.851562 180.699219 Z M 108.847656 104.683594 " fill-opacity="1" fill-rule="nonzero"/><path fill="#000000" d="M 184.84375 66.675781 L 193.800781 57.71875 L 231.800781 95.722656 L 222.84375 104.679688 Z M 184.84375 66.675781 " fill-opacity="1" fill-rule="nonzero"/><path fill="#000000" d="M 108.84375 142.6875 L 117.800781 133.730469 L 155.800781 171.734375 L 146.84375 180.691406 Z M 108.84375 142.6875 " fill-opacity="1" fill-rule="nonzero"/><path fill="#000000" d="M 366.664062 239.558594 L 328.664062 239.558594 C 328.246094 239.558594 327.835938 239.515625 327.425781 239.4375 C 327.019531 239.355469 326.621094 239.234375 326.238281 239.074219 C 325.855469 238.917969 325.488281 238.722656 325.144531 238.492188 C 324.796875 238.257812 324.476562 237.996094 324.183594 237.703125 C 323.890625 237.410156 323.628906 237.089844 323.394531 236.742188 C 323.164062 236.398438 322.96875 236.03125 322.8125 235.648438 C 322.652344 235.261719 322.53125 234.867188 322.449219 234.460938 C 322.371094 234.050781 322.328125 233.640625 322.328125 233.222656 L 322.328125 195.21875 C 322.328125 194.800781 322.371094 194.390625 322.449219 193.984375 C 322.53125 193.574219 322.652344 193.179688 322.8125 192.792969 C 322.96875 192.410156 323.164062 192.042969 323.394531 191.699219 C 323.628906 191.351562 323.890625 191.035156 324.183594 190.738281 C 324.476562 190.445312 324.796875 190.183594 325.144531 189.953125 C 325.488281 189.71875 325.855469 189.523438 326.238281 189.367188 C 326.621094 189.207031 327.019531 189.085938 327.425781 189.003906 C 327.835938 188.925781 328.246094 188.882812 328.664062 188.882812 L 366.664062 188.882812 C 367.078125 188.882812 367.492188 188.925781 367.898438 189.003906 C 368.308594 189.085938 368.703125 189.207031 369.085938 189.367188 C 369.472656 189.523438 369.835938 189.71875 370.183594 189.953125 C 370.527344 190.183594 370.847656 190.445312 371.140625 190.738281 C 371.4375 191.035156 371.699219 191.351562 371.929688 191.699219 C 372.160156 192.042969 372.355469 192.410156 372.515625 192.792969 C 372.671875 193.179688 372.792969 193.574219 372.875 193.984375 C 372.957031 194.390625 372.996094 194.800781 372.996094 195.21875 L 372.996094 233.222656 C 372.996094 233.640625 372.957031 234.050781 372.875 234.460938 C 372.792969 234.867188 372.671875 235.261719 372.515625 235.648438 C 372.355469 236.03125 372.160156 236.398438 371.929688 236.742188 C 371.699219 237.089844 371.4375 237.410156 371.140625 237.703125 C 370.847656 237.996094 370.527344 238.257812 370.183594 238.492188 C 369.835938 238.722656 369.472656 238.917969 369.085938 239.074219 C 368.703125 239.234375 368.308594 239.355469 367.898438 239.4375 C 367.492188 239.515625 367.078125 239.558594 366.664062 239.558594 Z M 334.996094 226.890625 L 360.328125 226.890625 L 360.328125 201.550781 L 334.996094 201.550781 Z M 334.996094 226.890625 " fill-opacity="1" fill-rule="nonzero"/><path fill="#000000" d="M 407.832031 195.21875 C 406.898438 195.21875 405.964844 195.171875 405.039062 195.082031 C 404.109375 194.988281 403.1875 194.851562 402.269531 194.671875 C 401.355469 194.488281 400.449219 194.261719 399.558594 193.992188 C 398.664062 193.71875 397.785156 193.40625 396.925781 193.046875 C 396.0625 192.691406 395.21875 192.292969 394.394531 191.851562 C 393.574219 191.414062 392.773438 190.933594 391.996094 190.414062 C 391.222656 189.894531 390.472656 189.339844 389.75 188.746094 C 389.027344 188.15625 388.339844 187.53125 387.679688 186.871094 C 387.019531 186.210938 386.390625 185.519531 385.800781 184.796875 C 385.207031 184.074219 384.652344 183.328125 384.132812 182.550781 C 383.613281 181.773438 383.136719 180.972656 382.695312 180.152344 C 382.253906 179.328125 381.855469 178.484375 381.5 177.621094 C 381.140625 176.757812 380.828125 175.882812 380.558594 174.988281 C 380.285156 174.09375 380.058594 173.191406 379.878906 172.273438 C 379.695312 171.359375 379.558594 170.4375 379.46875 169.507812 C 379.375 168.578125 379.332031 167.648438 379.332031 166.714844 C 379.332031 165.78125 379.375 164.847656 379.46875 163.921875 C 379.558594 162.992188 379.695312 162.070312 379.878906 161.152344 C 380.058594 160.238281 380.285156 159.332031 380.558594 158.441406 C 380.828125 157.546875 381.140625 156.667969 381.5 155.804688 C 381.855469 154.945312 382.253906 154.101562 382.695312 153.277344 C 383.136719 152.453125 383.613281 151.652344 384.132812 150.878906 C 384.652344 150.101562 385.207031 149.351562 385.800781 148.632812 C 386.390625 147.910156 387.019531 147.21875 387.679688 146.558594 C 388.339844 145.898438 389.027344 145.273438 389.75 144.679688 C 390.472656 144.089844 391.222656 143.53125 391.996094 143.015625 C 392.773438 142.496094 393.574219 142.015625 394.394531 141.574219 C 395.21875 141.136719 396.0625 140.738281 396.925781 140.378906 C 397.785156 140.023438 398.664062 139.707031 399.558594 139.4375 C 400.449219 139.167969 401.355469 138.941406 402.269531 138.757812 C 403.1875 138.574219 404.109375 138.4375 405.039062 138.347656 C 405.964844 138.253906 406.898438 138.210938 407.832031 138.210938 C 408.765625 138.210938 409.695312 138.253906 410.625 138.347656 C 411.554688 138.4375 412.476562 138.574219 413.390625 138.757812 C 414.308594 138.941406 415.210938 139.167969 416.105469 139.4375 C 416.996094 139.707031 417.875 140.023438 418.738281 140.378906 C 419.601562 140.738281 420.441406 141.136719 421.265625 141.574219 C 422.089844 142.015625 422.890625 142.496094 423.664062 143.015625 C 424.441406 143.53125 425.191406 144.089844 425.910156 144.679688 C 426.632812 145.273438 427.324219 145.898438 427.984375 146.558594 C 428.644531 147.21875 429.269531 147.910156 429.863281 148.632812 C 430.453125 149.351562 431.011719 150.101562 431.527344 150.878906 C 432.046875 151.652344 432.527344 152.453125 432.964844 153.277344 C 433.40625 154.101562 433.804688 154.945312 434.164062 155.804688 C 434.519531 156.667969 434.832031 157.546875 435.105469 158.441406 C 435.375 159.332031 435.601562 160.238281 435.785156 161.152344 C 435.964844 162.070312 436.101562 162.992188 436.195312 163.921875 C 436.285156 164.847656 436.332031 165.78125 436.332031 166.714844 C 436.332031 167.648438 436.285156 168.578125 436.191406 169.507812 C 436.097656 170.4375 435.960938 171.359375 435.777344 172.273438 C 435.597656 173.1875 435.367188 174.09375 435.097656 174.984375 C 434.824219 175.878906 434.511719 176.753906 434.152344 177.617188 C 433.796875 178.480469 433.398438 179.320312 432.957031 180.144531 C 432.515625 180.96875 432.039062 181.765625 431.519531 182.542969 C 431 183.320312 430.445312 184.066406 429.851562 184.789062 C 429.261719 185.507812 428.636719 186.199219 427.976562 186.859375 C 427.316406 187.519531 426.625 188.144531 425.902344 188.738281 C 425.183594 189.332031 424.433594 189.886719 423.65625 190.40625 C 422.882812 190.921875 422.082031 191.402344 421.261719 191.84375 C 420.4375 192.285156 419.59375 192.683594 418.734375 193.039062 C 417.871094 193.398438 416.992188 193.710938 416.101562 193.984375 C 415.207031 194.253906 414.304688 194.484375 413.390625 194.664062 C 412.472656 194.847656 411.550781 194.984375 410.625 195.078125 C 409.695312 195.171875 408.765625 195.21875 407.832031 195.21875 Z M 407.832031 150.878906 C 407.3125 150.878906 406.796875 150.902344 406.277344 150.953125 C 405.761719 151.003906 405.25 151.082031 404.742188 151.183594 C 404.234375 151.285156 403.730469 151.410156 403.234375 151.558594 C 402.738281 151.710938 402.25 151.886719 401.773438 152.082031 C 401.292969 152.28125 400.824219 152.503906 400.367188 152.75 C 399.910156 152.992188 399.464844 153.257812 399.035156 153.546875 C 398.601562 153.835938 398.1875 154.144531 397.785156 154.472656 C 397.386719 154.800781 397 155.148438 396.636719 155.515625 C 396.269531 155.882812 395.921875 156.265625 395.589844 156.667969 C 395.261719 157.070312 394.953125 157.484375 394.664062 157.917969 C 394.378906 158.347656 394.113281 158.792969 393.867188 159.25 C 393.621094 159.707031 393.402344 160.175781 393.203125 160.652344 C 393.003906 161.132812 392.828125 161.621094 392.679688 162.117188 C 392.527344 162.613281 392.402344 163.117188 392.300781 163.625 C 392.199219 164.132812 392.125 164.644531 392.074219 165.160156 C 392.023438 165.679688 391.996094 166.195312 391.996094 166.714844 C 391.996094 167.234375 392.023438 167.75 392.074219 168.265625 C 392.125 168.78125 392.199219 169.292969 392.300781 169.804688 C 392.402344 170.3125 392.527344 170.816406 392.679688 171.3125 C 392.828125 171.808594 393.003906 172.296875 393.203125 172.773438 C 393.402344 173.253906 393.621094 173.722656 393.867188 174.179688 C 394.113281 174.636719 394.378906 175.082031 394.664062 175.511719 C 394.953125 175.941406 395.261719 176.359375 395.589844 176.761719 C 395.921875 177.160156 396.269531 177.542969 396.636719 177.910156 C 397 178.277344 397.386719 178.625 397.785156 178.957031 C 398.1875 179.285156 398.601562 179.59375 399.035156 179.882812 C 399.464844 180.167969 399.910156 180.433594 400.367188 180.679688 C 400.824219 180.925781 401.292969 181.144531 401.773438 181.34375 C 402.25 181.542969 402.738281 181.71875 403.234375 181.867188 C 403.730469 182.019531 404.234375 182.144531 404.742188 182.246094 C 405.25 182.347656 405.761719 182.421875 406.277344 182.472656 C 406.796875 182.523438 407.3125 182.550781 407.832031 182.550781 C 408.351562 182.550781 408.867188 182.523438 409.382812 182.472656 C 409.898438 182.421875 410.410156 182.347656 410.921875 182.246094 C 411.429688 182.144531 411.929688 182.019531 412.425781 181.867188 C 412.921875 181.71875 413.410156 181.542969 413.890625 181.34375 C 414.371094 181.144531 414.835938 180.925781 415.296875 180.679688 C 415.753906 180.433594 416.195312 180.167969 416.628906 179.882812 C 417.058594 179.59375 417.476562 179.285156 417.875 178.957031 C 418.277344 178.625 418.660156 178.277344 419.027344 177.910156 C 419.394531 177.542969 419.742188 177.160156 420.070312 176.761719 C 420.398438 176.359375 420.707031 175.941406 420.996094 175.511719 C 421.285156 175.082031 421.550781 174.636719 421.796875 174.179688 C 422.039062 173.722656 422.261719 173.253906 422.460938 172.773438 C 422.65625 172.296875 422.832031 171.808594 422.984375 171.3125 C 423.132812 170.816406 423.257812 170.3125 423.359375 169.804688 C 423.460938 169.292969 423.539062 168.78125 423.589844 168.265625 C 423.640625 167.75 423.664062 167.234375 423.664062 166.714844 C 423.664062 166.195312 423.640625 165.679688 423.589844 165.160156 C 423.539062 164.644531 423.460938 164.132812 423.359375 163.625 C 423.257812 163.117188 423.132812 162.613281 422.984375 162.117188 C 422.832031 161.621094 422.65625 161.132812 422.460938 160.652344 C 422.261719 160.175781 422.039062 159.707031 421.796875 159.25 C 421.550781 158.792969 421.285156 158.347656 420.996094 157.917969 C 420.707031 157.484375 420.398438 157.070312 420.070312 156.667969 C 419.742188 156.265625 419.394531 155.882812 419.027344 155.515625 C 418.660156 155.148438 418.277344 154.800781 417.875 154.472656 C 417.476562 154.144531 417.058594 153.835938 416.628906 153.546875 C 416.195312 153.257812 415.753906 152.992188 415.296875 152.75 C 414.835938 152.503906 414.371094 152.28125 413.890625 152.082031 C 413.410156 151.886719 412.921875 151.710938 412.425781 151.558594 C 411.929688 151.410156 411.429688 151.285156 410.921875 151.183594 C 410.410156 151.082031 409.898438 151.003906 409.382812 150.953125 C 408.867188 150.902344 408.351562 150.878906 407.832031 150.878906 Z M 407.832031 150.878906 " fill-opacity="1" fill-rule="nonzero"/><path fill="#000000" d="M 372.996094 131.875 L 322.328125 131.875 C 321.753906 131.875 321.191406 131.800781 320.640625 131.648438 C 320.085938 131.492188 319.566406 131.269531 319.074219 130.976562 C 318.582031 130.679688 318.136719 130.324219 317.742188 129.910156 C 317.347656 129.496094 317.015625 129.035156 316.742188 128.53125 C 316.472656 128.023438 316.273438 127.492188 316.148438 126.933594 C 316.023438 126.371094 315.972656 125.808594 316 125.234375 C 316.03125 124.660156 316.132812 124.101562 316.3125 123.558594 C 316.492188 123.015625 316.742188 122.503906 317.058594 122.027344 L 342.394531 84.019531 C 342.699219 83.609375 343.050781 83.242188 343.441406 82.914062 C 343.832031 82.585938 344.257812 82.308594 344.714844 82.078125 C 345.171875 81.847656 345.652344 81.675781 346.148438 81.558594 C 346.648438 81.441406 347.152344 81.382812 347.664062 81.382812 C 348.175781 81.382812 348.679688 81.441406 349.175781 81.558594 C 349.675781 81.675781 350.152344 81.847656 350.609375 82.078125 C 351.066406 82.308594 351.492188 82.585938 351.882812 82.914062 C 352.277344 83.242188 352.625 83.609375 352.933594 84.019531 L 378.265625 122.027344 C 378.585938 122.503906 378.832031 123.015625 379.011719 123.558594 C 379.191406 124.101562 379.296875 124.660156 379.324219 125.234375 C 379.351562 125.808594 379.300781 126.371094 379.175781 126.933594 C 379.050781 127.492188 378.851562 128.023438 378.582031 128.53125 C 378.3125 129.035156 377.980469 129.496094 377.582031 129.910156 C 377.1875 130.324219 376.742188 130.679688 376.253906 130.976562 C 375.761719 131.269531 375.238281 131.492188 374.6875 131.648438 C 374.132812 131.800781 373.570312 131.875 372.996094 131.875 Z M 334.160156 119.207031 L 361.164062 119.207031 L 347.664062 98.9375 Z M 334.160156 119.207031 " fill-opacity="1" fill-rule="nonzero"/><path fill="#000000" d="M 248.179688 339.050781 L 257.136719 330.089844 L 295.136719 368.09375 L 286.179688 377.054688 Z M 248.179688 339.050781 " fill-opacity="1" fill-rule="nonzero"/><path fill="#000000" d="M 324.183594 415.0625 L 333.140625 406.101562 L 383.808594 456.777344 L 374.851562 465.734375 Z M 324.183594 415.0625 " fill-opacity="1" fill-rule="nonzero"/><path fill="#000000" d="M 210.179688 339.050781 L 219.136719 330.09375 L 345.808594 456.777344 L 336.851562 465.734375 Z M 210.179688 339.050781 " fill-opacity="1" fill-rule="nonzero"/><path fill="#000000" d="M 216.515625 383.390625 L 225.472656 374.433594 L 352.140625 501.117188 L 343.183594 510.074219 Z M 216.515625 383.390625 " fill-opacity="1" fill-rule="nonzero"/><path fill="#000000" d="M 216.515625 421.394531 L 225.472656 412.4375 L 282.472656 469.445312 L 273.515625 478.402344 Z M 216.515625 421.394531 " fill-opacity="1" fill-rule="nonzero"/></g></g></g></svg>