<svg xmlns="http://www.w3.org/2000/svg" xmlns:xlink="http://www.w3.org/1999/xlink" width="1000" zoomAndPan="magnify" viewBox="0 0 750 749.999995" height="1000" preserveAspectRatio="xMidYMid meet" version="1.0"><defs><filter x="0%" y="0%" width="100%" height="100%" id="2b5215e5ff"><feColorMatrix values="0 0 0 0 1 0 0 0 0 1 0 0 0 0 1 0 0 0 1 0" color-interpolation-filters="sRGB"/></filter><mask id="269ef0b995"><g filter="url(#2b5215e5ff)"><rect x="-75" width="900" fill="#000000" y="-74.999999" height="899.999994" fill-opacity="0.74"/></g></mask><clipPath id="b0acecc0c4"><path d="M 410 496 L 616 496 L 616 642.832031 L 410 642.832031 Z M 410 496 " clip-rule="nonzero"/></clipPath><clipPath id="512a89add8"><path d="M 0.25 238 L 138 238 L 138 385 L 0.25 385 Z M 0.25 238 " clip-rule="nonzero"/></clipPath><clipPath id="a85b52be02"><path d="M 133 509 L 246 509 L 246 642.832031 L 133 642.832031 Z M 133 509 " clip-rule="nonzero"/></clipPath><clipPath id="3b7153d7d1"><rect x="0" width="671" y="0" height="644"/></clipPath></defs><g mask="url(#269ef0b995)"><g transform="matrix(1, 0, 0, 1, 40, 53)"><g clip-path="url(#3b7153d7d1)"><path fill="#000000" d="M 442.957031 65.21875 C 442.957031 68.921875 445.960938 71.921875 449.664062 71.921875 L 471.785156 71.921875 C 475.488281 71.921875 478.492188 68.921875 478.492188 65.21875 C 478.492188 61.519531 475.488281 58.519531 471.785156 58.519531 L 449.664062 58.519531 C 445.957031 58.519531 442.957031 61.519531 442.957031 65.21875 Z M 442.957031 65.21875 " fill-opacity="1" fill-rule="nonzero"/><path fill="#000000" d="M 447.449219 56.597656 C 448.859375 56.597656 450.28125 56.15625 451.492188 55.238281 L 469.125 41.890625 C 472.078125 39.65625 472.65625 35.453125 470.421875 32.503906 C 468.183594 29.554688 463.976562 28.976562 461.027344 31.210938 L 443.394531 44.558594 C 440.441406 46.792969 439.859375 50.996094 442.097656 53.945312 C 443.417969 55.683594 445.421875 56.597656 447.449219 56.597656 Z M 447.449219 56.597656 " fill-opacity="1" fill-rule="nonzero"/><path fill="#000000" d="M 469.128906 88.550781 L 451.496094 75.203125 C 448.542969 72.96875 444.335938 73.546875 442.097656 76.496094 C 439.863281 79.445312 440.441406 83.648438 443.394531 85.882812 L 461.027344 99.230469 C 462.238281 100.148438 463.660156 100.589844 465.074219 100.589844 C 467.101562 100.589844 469.105469 99.675781 470.421875 97.9375 C 472.65625 94.988281 472.078125 90.785156 469.128906 88.550781 Z M 469.128906 88.550781 " fill-opacity="1" fill-rule="nonzero"/><path fill="#000000" d="M 663.28125 240.441406 L 594.789062 240.441406 C 594.394531 239.375 593.992188 238.308594 593.585938 237.246094 L 585.265625 240.441406 L 545.714844 240.441406 C 542.011719 240.441406 539.007812 243.441406 539.007812 247.140625 L 539.007812 337.332031 C 539.007812 341.03125 542.011719 344.03125 545.714844 344.03125 L 572.820312 344.03125 L 572.820312 374.703125 C 572.820312 377.460938 574.515625 379.941406 577.089844 380.945312 C 577.882812 381.253906 578.707031 381.402344 579.523438 381.402344 C 581.363281 381.402344 583.164062 380.644531 584.460938 379.238281 L 596.664062 365.988281 C 596.339844 368.800781 595.96875 371.617188 595.558594 374.398438 L 608.828125 376.359375 C 609.414062 372.394531 609.921875 368.359375 610.332031 364.367188 L 599.214844 363.21875 L 606.953125 354.816406 L 611.132812 355.105469 C 611.25 353.394531 611.355469 351.65625 611.441406 349.941406 L 616.886719 344.03125 L 663.285156 344.03125 C 666.988281 344.03125 669.988281 341.03125 669.988281 337.332031 L 669.988281 247.140625 C 669.988281 243.4375 666.984375 240.441406 663.28125 240.441406 Z M 656.574219 330.632812 L 613.941406 330.632812 C 612.066406 330.632812 610.277344 331.417969 609.007812 332.796875 L 586.230469 357.527344 L 586.230469 337.332031 C 586.230469 333.632812 583.230469 330.632812 579.527344 330.632812 L 552.417969 330.632812 L 552.417969 253.839844 L 656.574219 253.839844 Z M 656.574219 330.632812 " fill-opacity="1" fill-rule="nonzero"/><path fill="#000000" d="M 566.179688 324.261719 C 569.660156 325.523438 573.507812 323.726562 574.769531 320.25 L 577.585938 312.503906 L 593.722656 312.503906 L 596.539062 320.25 C 597.527344 322.976562 600.101562 324.667969 602.84375 324.667969 C 603.601562 324.667969 604.375 324.535156 605.128906 324.261719 C 608.613281 323 610.410156 319.15625 609.144531 315.679688 L 608.761719 314.625 C 611.804688 320.917969 618.257812 325.269531 625.707031 325.269531 C 628.773438 325.269531 631.667969 324.53125 634.226562 323.226562 C 635.367188 324.125 636.808594 324.664062 638.375 324.664062 C 642.078125 324.664062 645.082031 321.664062 645.082031 317.964844 L 645.082031 270.683594 C 645.082031 266.984375 642.078125 263.984375 638.375 263.984375 C 634.671875 263.984375 631.667969 266.984375 631.667969 270.683594 L 631.667969 288.652344 C 629.796875 288.027344 627.789062 287.6875 625.707031 287.6875 C 615.339844 287.6875 606.902344 296.117188 606.902344 306.476562 C 606.902344 308.058594 607.097656 309.597656 607.46875 311.066406 L 591.960938 268.398438 C 590.996094 265.75 588.476562 263.984375 585.65625 263.984375 C 582.832031 263.984375 580.316406 265.75 579.351562 268.398438 L 562.164062 315.679688 C 560.898438 319.15625 562.695312 322.996094 566.179688 324.261719 Z M 625.707031 301.085938 C 628.683594 301.085938 631.101562 303.503906 631.101562 306.476562 C 631.101562 309.449219 628.683594 311.867188 625.707031 311.867188 C 622.730469 311.867188 620.3125 309.449219 620.3125 306.476562 C 620.308594 303.503906 622.730469 301.085938 625.707031 301.085938 Z M 585.652344 290.3125 L 588.851562 299.105469 L 582.457031 299.105469 Z M 585.652344 290.3125 " fill-opacity="1" fill-rule="nonzero"/><path fill="#000000" d="M 93.859375 305.113281 L 56.859375 283.769531 C 54.785156 282.574219 52.230469 282.574219 50.15625 283.769531 C 48.082031 284.96875 46.800781 287.179688 46.800781 289.570312 L 46.800781 332.253906 C 46.800781 334.648438 48.082031 336.859375 50.15625 338.058594 C 51.191406 338.65625 52.351562 338.957031 53.507812 338.957031 C 54.667969 338.957031 55.824219 338.65625 56.859375 338.058594 L 93.859375 316.714844 C 95.933594 315.519531 97.210938 313.304688 97.210938 310.914062 C 97.210938 308.519531 95.933594 306.308594 93.859375 305.113281 Z M 60.214844 320.652344 L 60.214844 301.179688 L 77.09375 310.914062 Z M 60.214844 320.652344 " fill-opacity="1" fill-rule="nonzero"/><path fill="#000000" d="M 103.109375 264.722656 L 114.777344 264.722656 L 114.777344 275.164062 L 103.109375 275.164062 Z M 103.109375 264.722656 " fill-opacity="1" fill-rule="nonzero"/><path fill="#000000" d="M 20.53125 264.722656 L 32.199219 264.722656 L 32.199219 275.164062 L 20.53125 275.164062 Z M 20.53125 264.722656 " fill-opacity="1" fill-rule="nonzero"/><path fill="#000000" d="M 41.175781 264.722656 L 52.84375 264.722656 L 52.84375 275.164062 L 41.175781 275.164062 Z M 41.175781 264.722656 " fill-opacity="1" fill-rule="nonzero"/><path fill="#000000" d="M 82.464844 264.722656 L 94.132812 264.722656 L 94.132812 275.164062 L 82.464844 275.164062 Z M 82.464844 264.722656 " fill-opacity="1" fill-rule="nonzero"/><path fill="#000000" d="M 61.820312 264.722656 L 73.488281 264.722656 L 73.488281 275.164062 L 61.820312 275.164062 Z M 61.820312 264.722656 " fill-opacity="1" fill-rule="nonzero"/><path fill="#000000" d="M 61.820312 347.382812 L 73.488281 347.382812 L 73.488281 357.824219 L 61.820312 357.824219 Z M 61.820312 347.382812 " fill-opacity="1" fill-rule="nonzero"/><path fill="#000000" d="M 103.109375 347.382812 L 114.777344 347.382812 L 114.777344 357.824219 L 103.109375 357.824219 Z M 103.109375 347.382812 " fill-opacity="1" fill-rule="nonzero"/><path fill="#000000" d="M 41.175781 347.382812 L 52.84375 347.382812 L 52.84375 357.824219 L 41.175781 357.824219 Z M 41.175781 347.382812 " fill-opacity="1" fill-rule="nonzero"/><path fill="#000000" d="M 82.464844 347.382812 L 94.132812 347.382812 L 94.132812 357.824219 L 82.464844 357.824219 Z M 82.464844 347.382812 " fill-opacity="1" fill-rule="nonzero"/><path fill="#000000" d="M 20.53125 347.382812 L 32.199219 347.382812 L 32.199219 357.824219 L 20.53125 357.824219 Z M 20.53125 347.382812 " fill-opacity="1" fill-rule="nonzero"/><path fill="#000000" d="M 153.625 557.132812 C 153.625 560.398438 156.277344 563.046875 159.546875 563.046875 L 216.210938 563.046875 C 219.484375 563.046875 222.132812 560.398438 222.132812 557.132812 C 222.132812 553.863281 219.484375 551.214844 216.210938 551.214844 L 159.546875 551.214844 C 156.277344 551.214844 153.625 553.863281 153.625 557.132812 Z M 153.625 557.132812 " fill-opacity="1" fill-rule="nonzero"/><path fill="#000000" d="M 216.210938 571.28125 L 159.546875 571.28125 C 156.277344 571.28125 153.625 573.929688 153.625 577.199219 C 153.625 580.464844 156.277344 583.117188 159.546875 583.117188 L 216.210938 583.117188 C 219.484375 583.117188 222.132812 580.464844 222.132812 577.199219 C 222.132812 573.929688 219.480469 571.28125 216.210938 571.28125 Z M 216.210938 571.28125 " fill-opacity="1" fill-rule="nonzero"/><path fill="#000000" d="M 216.210938 591.351562 L 159.546875 591.351562 C 156.277344 591.351562 153.625 594 153.625 597.265625 C 153.625 600.535156 156.277344 603.183594 159.546875 603.183594 L 216.210938 603.183594 C 219.484375 603.183594 222.132812 600.535156 222.132812 597.265625 C 222.132812 594 219.480469 591.351562 216.210938 591.351562 Z M 216.210938 591.351562 " fill-opacity="1" fill-rule="nonzero"/><path fill="#000000" d="M 216.210938 611.417969 L 159.546875 611.417969 C 156.277344 611.417969 153.625 614.066406 153.625 617.335938 C 153.625 620.601562 156.277344 623.25 159.546875 623.25 L 216.210938 623.25 C 219.484375 623.25 222.132812 620.601562 222.132812 617.335938 C 222.132812 614.066406 219.480469 611.417969 216.210938 611.417969 Z M 216.210938 611.417969 " fill-opacity="1" fill-rule="nonzero"/><g clip-path="url(#b0acecc0c4)"><path fill="#000000" d="M 612.105469 536.195312 L 590.15625 526.742188 L 596.949219 503.847656 C 597.613281 501.613281 596.902344 499.199219 595.132812 497.679688 C 593.367188 496.160156 590.871094 495.816406 588.761719 496.804688 L 553.691406 513.207031 C 552.160156 513.921875 551.007812 515.261719 550.527344 516.882812 L 542.992188 542.265625 L 533.109375 546.886719 C 530.847656 543.019531 528.1875 539.398438 525.140625 536.066406 C 525.945312 535.308594 526.746094 534.546875 527.539062 533.785156 L 518.234375 524.132812 C 517.195312 525.132812 516.132812 526.136719 515.070312 527.125 C 511.261719 524.402344 507.164062 522.105469 502.8125 520.265625 C 494.9375 516.9375 486.578125 515.25 477.960938 515.25 C 469.347656 515.25 460.984375 516.9375 453.109375 520.265625 C 445.507812 523.476562 438.683594 528.074219 432.820312 533.933594 C 426.960938 539.789062 422.359375 546.609375 419.140625 554.203125 C 415.8125 562.070312 414.121094 570.425781 414.121094 579.03125 C 414.121094 581.21875 414.230469 583.390625 414.449219 585.542969 C 413.113281 585.960938 411.769531 586.367188 410.441406 586.753906 L 414.210938 599.613281 C 415.210938 599.320312 416.214844 599.019531 417.21875 598.714844 C 417.785156 600.449219 418.425781 602.167969 419.140625 603.859375 C 422.359375 611.457031 426.960938 618.277344 432.820312 624.132812 C 438.683594 629.988281 445.507812 634.585938 453.109375 637.800781 C 460.984375 641.128906 469.347656 642.816406 477.960938 642.816406 C 486.578125 642.816406 494.9375 641.128906 502.8125 637.800781 C 510.414062 634.585938 517.242188 629.988281 523.101562 624.132812 C 528.964844 618.277344 533.566406 611.457031 536.78125 603.859375 C 540.113281 595.992188 541.800781 587.640625 541.800781 579.03125 C 541.800781 571.65625 540.5625 564.46875 538.109375 557.613281 L 548.015625 552.980469 L 572.351562 563.460938 C 573.097656 563.78125 573.894531 563.945312 574.695312 563.945312 C 575.554688 563.945312 576.410156 563.757812 577.203125 563.386719 L 612.273438 546.984375 C 614.382812 546 615.71875 543.863281 615.683594 541.535156 C 615.648438 539.207031 614.246094 537.117188 612.105469 536.195312 Z M 514.726562 615.765625 C 504.90625 625.578125 491.847656 630.980469 477.960938 630.980469 C 464.070312 630.980469 451.015625 625.578125 441.195312 615.765625 C 431.375 605.953125 425.964844 592.910156 425.964844 579.03125 C 425.964844 565.15625 431.375 552.109375 441.195312 542.300781 C 451.015625 532.488281 464.070312 527.082031 477.960938 527.082031 C 491.847656 527.082031 504.90625 532.488281 514.726562 542.300781 C 517.667969 545.238281 520.210938 548.46875 522.332031 551.925781 L 513.792969 555.921875 C 512.167969 553.417969 510.269531 551.066406 508.109375 548.910156 C 500.058594 540.863281 489.351562 536.433594 477.960938 536.433594 C 466.574219 536.433594 455.863281 540.863281 447.8125 548.910156 C 439.761719 556.957031 435.324219 567.65625 435.324219 579.03125 C 435.324219 590.410156 439.757812 601.109375 447.8125 609.15625 C 455.867188 617.203125 466.574219 621.632812 477.960938 621.632812 C 489.351562 621.632812 500.058594 617.203125 508.109375 609.15625 C 516.164062 601.109375 520.601562 590.410156 520.601562 579.03125 C 520.601562 574.777344 519.980469 570.613281 518.78125 566.652344 L 527.332031 562.652344 C 529.058594 567.867188 529.957031 573.378906 529.957031 579.03125 C 529.957031 592.910156 524.546875 605.953125 514.726562 615.765625 Z M 473.046875 581.507812 C 474.054688 583.660156 476.1875 584.917969 478.417969 584.917969 C 479.257812 584.917969 480.109375 584.738281 480.921875 584.359375 L 487.257812 581.394531 C 486.203125 585.542969 482.4375 588.621094 477.960938 588.621094 C 472.671875 588.621094 468.367188 584.320312 468.367188 579.035156 C 468.367188 573.75 472.671875 569.449219 477.960938 569.449219 C 479.585938 569.449219 481.121094 569.855469 482.460938 570.574219 L 475.902344 573.640625 C 472.9375 575.027344 471.660156 578.546875 473.046875 581.507812 Z M 477.960938 557.613281 C 466.140625 557.613281 456.523438 567.222656 456.523438 579.035156 C 456.523438 590.84375 466.140625 600.453125 477.960938 600.453125 C 489.78125 600.453125 499.398438 590.84375 499.398438 579.035156 C 499.398438 577.945312 499.320312 576.875 499.160156 575.832031 L 507.882812 571.75 C 508.453125 574.085938 508.757812 576.523438 508.757812 579.035156 C 508.757812 596 494.941406 609.800781 477.964844 609.800781 C 460.984375 609.800781 447.167969 596 447.167969 579.035156 C 447.167969 562.070312 460.984375 548.269531 477.964844 548.269531 C 488.210938 548.269531 497.304688 553.296875 502.90625 561.015625 L 494.214844 565.078125 C 490.277344 560.511719 484.453125 557.613281 477.960938 557.613281 Z M 561.125 522.792969 L 581.847656 513.101562 L 578.0625 525.863281 L 557.339844 535.554688 Z M 574.59375 551.542969 L 562.359375 546.273438 L 583.082031 536.582031 L 595.316406 541.851562 Z M 574.59375 551.542969 " fill-opacity="1" fill-rule="nonzero"/></g><path fill="#000000" d="M 416.269531 489.210938 C 416.269531 485.308594 413.105469 482.144531 409.199219 482.144531 L 377.769531 482.144531 L 377.769531 453.085938 L 488.71875 453.085938 C 492.625 453.085938 495.792969 449.925781 495.792969 446.023438 L 495.792969 223.210938 C 495.792969 219.3125 492.625 216.148438 488.71875 216.148438 L 189.167969 216.148438 C 185.261719 216.148438 182.097656 219.3125 182.097656 223.210938 L 182.097656 446.023438 C 182.097656 449.925781 185.261719 453.089844 189.167969 453.089844 L 300.121094 453.089844 L 300.121094 482.148438 L 268.6875 482.148438 C 264.78125 482.148438 261.617188 485.308594 261.617188 489.210938 C 261.617188 493.113281 264.78125 496.277344 268.6875 496.277344 L 409.203125 496.277344 C 413.105469 496.277344 416.269531 493.113281 416.269531 489.210938 Z M 196.242188 230.277344 L 481.648438 230.277344 L 481.648438 397.609375 L 196.242188 397.609375 Z M 363.625 482.148438 L 314.261719 482.148438 L 314.261719 453.089844 L 363.625 453.089844 Z M 370.699219 438.683594 L 307.191406 438.683594 C 306.515625 438.683594 305.859375 438.78125 305.238281 438.957031 L 196.242188 438.957031 L 196.242188 411.738281 L 481.648438 411.738281 L 481.648438 438.957031 L 372.652344 438.957031 C 372.03125 438.78125 371.375 438.683594 370.699219 438.683594 Z M 370.699219 438.683594 " fill-opacity="1" fill-rule="nonzero"/><path fill="#000000" d="M 118.480469 191.382812 L 107.304688 183.972656 C 105.179688 187.167969 103.09375 190.457031 101.105469 193.742188 L 112.582031 200.675781 C 114.472656 197.554688 116.457031 194.425781 118.480469 191.382812 Z M 118.480469 191.382812 " fill-opacity="1" fill-rule="nonzero"/><path fill="#000000" d="M 155.949219 146.691406 L 146.6875 137 C 143.910156 139.652344 141.148438 142.398438 138.484375 145.160156 L 148.144531 154.457031 C 150.679688 151.828125 153.304688 149.214844 155.949219 146.691406 Z M 155.949219 146.691406 " fill-opacity="1" fill-rule="nonzero"/><path fill="#000000" d="M 170.527344 133.777344 L 162.003906 123.429688 C 159.039062 125.867188 156.085938 128.402344 153.222656 130.960938 L 162.167969 140.945312 C 164.894531 138.507812 167.703125 136.097656 170.527344 133.777344 Z M 170.527344 133.777344 " fill-opacity="1" fill-rule="nonzero"/><path fill="#000000" d="M 99.410156 225.320312 L 87.257812 219.652344 C 85.628906 223.132812 84.054688 226.695312 82.578125 230.242188 L 94.960938 235.390625 C 96.367188 232.019531 97.863281 228.632812 99.410156 225.320312 Z M 99.410156 225.320312 " fill-opacity="1" fill-rule="nonzero"/><path fill="#000000" d="M 142.367188 160.648438 L 132.414062 151.667969 C 129.839844 154.515625 127.289062 157.460938 124.835938 160.414062 L 135.15625 168.96875 C 137.492188 166.160156 139.917969 163.359375 142.367188 160.648438 Z M 142.367188 160.648438 " fill-opacity="1" fill-rule="nonzero"/><path fill="#000000" d="M 108.3125 207.996094 L 96.617188 201.4375 C 94.734375 204.785156 92.898438 208.21875 91.160156 211.644531 L 103.121094 217.707031 C 104.773438 214.449219 106.523438 211.183594 108.3125 207.996094 Z M 108.3125 207.996094 " fill-opacity="1" fill-rule="nonzero"/><path fill="#000000" d="M 237.097656 93.925781 L 231.988281 81.535156 C 228.441406 82.992188 224.875 84.550781 221.386719 86.160156 L 227.011719 98.324219 C 230.328125 96.792969 233.722656 95.3125 237.097656 93.925781 Z M 237.097656 93.925781 " fill-opacity="1" fill-rule="nonzero"/><path fill="#000000" d="M 274.050781 81.863281 L 270.851562 68.851562 C 267.125 69.765625 263.367188 70.773438 259.683594 71.84375 L 263.429688 84.710938 C 266.933594 83.691406 270.507812 82.734375 274.050781 81.863281 Z M 274.050781 81.863281 " fill-opacity="1" fill-rule="nonzero"/><path fill="#000000" d="M 219.390625 101.996094 L 213.371094 90.019531 C 209.941406 91.742188 206.5 93.5625 203.144531 95.425781 L 209.664062 107.136719 C 212.855469 105.363281 216.128906 103.632812 219.390625 101.996094 Z M 219.390625 101.996094 " fill-opacity="1" fill-rule="nonzero"/><path fill="#000000" d="M 129.851562 175.574219 L 119.257812 167.351562 C 116.902344 170.386719 114.578125 173.507812 112.351562 176.636719 L 123.277344 184.40625 C 125.398438 181.429688 127.609375 178.457031 129.851562 175.574219 Z M 129.851562 175.574219 " fill-opacity="1" fill-rule="nonzero"/><path fill="#000000" d="M 255.347656 87.203125 L 251.183594 74.464844 C 247.539062 75.65625 243.863281 76.941406 240.265625 78.285156 L 244.96875 90.835938 C 248.390625 89.554688 251.882812 88.335938 255.347656 87.203125 Z M 255.347656 87.203125 " fill-opacity="1" fill-rule="nonzero"/><path fill="#000000" d="M 186.015625 121.980469 L 178.285156 111.03125 C 175.148438 113.242188 172.011719 115.550781 168.96875 117.890625 L 177.152344 128.507812 C 180.046875 126.28125 183.03125 124.085938 186.015625 121.980469 Z M 186.015625 121.980469 " fill-opacity="1" fill-rule="nonzero"/><path fill="#000000" d="M 202.332031 111.367188 L 195.4375 99.871094 C 192.144531 101.84375 188.847656 103.914062 185.640625 106.023438 L 193.011719 117.214844 C 196.0625 115.210938 199.199219 113.242188 202.332031 111.367188 Z M 202.332031 111.367188 " fill-opacity="1" fill-rule="nonzero"/><path fill="#000000" d="M 283.925781 79.644531 C 288.402344 89.460938 297.957031 96.5 309.21875 97.386719 L 309.21875 137.203125 C 309.21875 146.195312 316.542969 153.511719 325.542969 153.511719 L 327.128906 153.511719 C 336.132812 153.511719 343.457031 146.195312 343.457031 137.203125 L 343.457031 97.484375 L 355.605469 97.484375 C 355.851562 97.558594 356.097656 97.625 356.355469 97.675781 C 375.742188 101.480469 393.726562 110.496094 408.367188 123.753906 L 416.175781 130.824219 C 417.429688 131.964844 419.042969 132.558594 420.679688 132.558594 C 421.597656 132.558594 422.519531 132.371094 423.394531 131.984375 C 425.820312 130.910156 427.382812 128.511719 427.382812 125.859375 L 427.398438 86.285156 C 435.335938 83.496094 441.046875 75.929688 441.046875 67.054688 C 441.046875 58.179688 435.335938 50.613281 427.398438 47.824219 L 427.382812 8.050781 C 427.382812 5.402344 425.820312 3 423.394531 1.925781 C 420.96875 0.851562 418.140625 1.308594 416.175781 3.085938 L 408.367188 10.160156 C 393.730469 23.414062 375.742188 32.433594 356.355469 36.234375 C 355.863281 36.332031 355.390625 36.480469 354.945312 36.675781 L 311.636719 36.675781 C 295.042969 36.675781 281.511719 50.015625 281.210938 66.523438 C 280.683594 66.632812 280.152344 66.742188 279.625 66.851562 L 282.394531 79.964844 C 282.902344 79.855469 283.414062 79.75 283.925781 79.644531 Z M 427.351562 66.085938 C 427.386719 65.816406 427.402344 65.542969 427.402344 65.269531 L 427.402344 59.765625 C 429.363281 61.582031 430.59375 64.175781 430.59375 67.054688 C 430.59375 69.933594 429.363281 72.527344 427.398438 74.34375 L 427.402344 68.640625 C 427.402344 68.367188 427.382812 68.09375 427.351562 67.824219 Z M 364.378906 68.640625 L 364.378906 48.183594 C 382.621094 43.734375 399.597656 35.132812 413.976562 23.050781 L 413.988281 64.453125 C 413.957031 64.722656 413.941406 64.996094 413.941406 65.273438 L 413.941406 68.640625 C 413.941406 68.917969 413.957031 69.191406 413.988281 69.460938 L 413.976562 110.863281 C 399.597656 98.78125 382.621094 90.179688 364.378906 85.730469 Z M 330.042969 137.203125 C 330.042969 138.808594 328.734375 140.113281 327.128906 140.113281 L 325.546875 140.113281 C 323.9375 140.113281 322.632812 138.804688 322.632812 137.203125 L 322.632812 97.535156 L 330.042969 97.535156 Z M 311.632812 50.074219 L 350.9375 50.074219 L 350.9375 65.269531 C 350.9375 65.480469 350.949219 65.6875 350.96875 65.894531 L 350.96875 68.015625 C 350.949219 68.222656 350.9375 68.429688 350.9375 68.640625 L 350.9375 84.085938 L 311.632812 84.085938 C 302.25 84.085938 294.617188 76.457031 294.617188 67.082031 C 294.617188 57.703125 302.25 50.074219 311.632812 50.074219 Z M 311.632812 50.074219 " fill-opacity="1" fill-rule="nonzero"/><path fill="#000000" d="M 80.726562 390.601562 L 67.609375 393.398438 C 68.417969 397.199219 69.324219 401.035156 70.296875 404.792969 L 83.28125 401.441406 C 82.355469 397.863281 81.496094 394.21875 80.726562 390.601562 Z M 80.726562 390.601562 " fill-opacity="1" fill-rule="nonzero"/><path fill="#000000" d="M 99.515625 446.511719 L 87.367188 452.191406 C 89.015625 455.710938 90.765625 459.242188 92.5625 462.6875 L 104.453125 456.496094 C 102.746094 453.21875 101.082031 449.859375 99.515625 446.511719 Z M 99.515625 446.511719 " fill-opacity="1" fill-rule="nonzero"/><path fill="#000000" d="M 85.566406 409.699219 L 72.699219 413.476562 C 73.796875 417.207031 74.988281 420.960938 76.246094 424.636719 L 88.9375 420.308594 C 87.742188 416.8125 86.609375 413.242188 85.566406 409.699219 Z M 85.566406 409.699219 " fill-opacity="1" fill-rule="nonzero"/><path fill="#000000" d="M 91.839844 428.367188 L 79.296875 433.113281 C 80.671875 436.746094 82.148438 440.398438 83.683594 443.972656 L 96.011719 438.695312 C 94.550781 435.296875 93.148438 431.824219 91.839844 428.367188 Z M 91.839844 428.367188 " fill-opacity="1" fill-rule="nonzero"/><path fill="#000000" d="M 118.867188 480.8125 L 107.714844 488.253906 C 109.875 491.484375 112.132812 494.714844 114.425781 497.851562 L 125.253906 489.941406 C 123.070312 486.957031 120.921875 483.886719 118.867188 480.8125 Z M 118.867188 480.8125 " fill-opacity="1" fill-rule="nonzero"/><path fill="#000000" d="M 130.425781 496.777344 L 119.863281 505.03125 C 122.257812 508.09375 124.753906 511.144531 127.277344 514.101562 L 137.480469 505.402344 C 135.082031 502.589844 132.707031 499.6875 130.425781 496.777344 Z M 130.425781 496.777344 " fill-opacity="1" fill-rule="nonzero"/><path fill="#000000" d="M 108.542969 464.027344 L 96.859375 470.605469 C 98.769531 473.988281 100.777344 477.378906 102.828125 480.679688 L 114.222656 473.609375 C 112.269531 470.46875 110.359375 467.246094 108.542969 464.027344 Z M 108.542969 464.027344 " fill-opacity="1" fill-rule="nonzero"/><g clip-path="url(#512a89add8)"><path fill="#000000" d="M 78.605469 379.480469 L 115.289062 379.480469 C 127.535156 379.480469 137.5 369.523438 137.5 357.289062 L 137.5 264.542969 C 137.5 252.304688 127.535156 242.347656 115.289062 242.347656 L 89.429688 242.347656 L 79.289062 238.515625 C 78.808594 239.78125 78.335938 241.066406 77.871094 242.347656 L 22.457031 242.347656 C 10.210938 242.347656 0.246094 252.304688 0.246094 264.542969 L 0.246094 357.289062 C 0.246094 369.523438 10.210938 379.480469 22.457031 379.480469 L 65.015625 379.480469 C 65.285156 381.167969 65.570312 382.863281 65.871094 384.535156 L 79.074219 382.175781 C 78.914062 381.28125 78.757812 380.382812 78.605469 379.480469 Z M 22.457031 366.082031 C 17.605469 366.082031 13.65625 362.136719 13.65625 357.289062 L 13.65625 264.542969 C 13.65625 259.695312 17.605469 255.75 22.457031 255.75 L 115.289062 255.75 C 120.140625 255.75 124.089844 259.695312 124.089844 264.542969 L 124.089844 264.71875 L 123.757812 264.71875 L 123.757812 275.160156 L 124.089844 275.160156 L 124.089844 347.382812 L 123.757812 347.382812 L 123.757812 357.824219 L 124.070312 357.824219 C 123.789062 362.421875 119.957031 366.082031 115.285156 366.082031 Z M 22.457031 366.082031 " fill-opacity="1" fill-rule="nonzero"/></g><path fill="#000000" d="M 336.679688 597.28125 C 335.070312 597.28125 333.441406 597.269531 331.839844 597.238281 L 331.597656 610.636719 C 333.277344 610.667969 334.988281 610.683594 336.679688 610.683594 C 338.917969 610.683594 341.183594 610.65625 343.417969 610.601562 L 343.09375 597.207031 C 340.96875 597.257812 338.8125 597.28125 336.679688 597.28125 Z M 336.679688 597.28125 " fill-opacity="1" fill-rule="nonzero"/><path fill="#000000" d="M 391.152344 591.609375 L 393.929688 604.71875 C 397.765625 603.910156 401.640625 603.003906 405.441406 602.023438 L 402.101562 589.046875 C 398.484375 589.976562 394.800781 590.839844 391.152344 591.609375 Z M 391.152344 591.609375 " fill-opacity="1" fill-rule="nonzero"/><path fill="#000000" d="M 371.546875 594.980469 L 373.316406 608.265625 C 377.210938 607.75 381.140625 607.140625 385.003906 606.457031 L 382.660156 593.261719 C 378.988281 593.910156 375.25 594.488281 371.546875 594.980469 Z M 371.546875 594.980469 " fill-opacity="1" fill-rule="nonzero"/><path fill="#000000" d="M 289.980469 606.738281 C 293.839844 607.398438 297.777344 607.984375 301.671875 608.476562 L 303.363281 595.183594 C 299.65625 594.714844 295.914062 594.15625 292.238281 593.527344 Z M 289.980469 606.738281 " fill-opacity="1" fill-rule="nonzero"/><path fill="#000000" d="M 310.714844 609.472656 C 314.617188 609.839844 318.585938 610.125 322.507812 610.324219 L 323.1875 596.941406 C 319.453125 596.75 315.679688 596.480469 311.96875 596.128906 Z M 310.714844 609.472656 " fill-opacity="1" fill-rule="nonzero"/><path fill="#000000" d="M 269.507812 602.429688 C 273.316406 603.382812 277.195312 604.265625 281.039062 605.054688 L 283.734375 591.929688 C 280.082031 591.179688 276.390625 590.335938 272.769531 589.429688 Z M 269.507812 602.429688 " fill-opacity="1" fill-rule="nonzero"/><path fill="#000000" d="M 351.742188 596.855469 L 352.5 610.234375 C 356.417969 610.011719 360.382812 609.703125 364.28125 609.316406 L 362.953125 595.980469 C 359.242188 596.351562 355.46875 596.644531 351.742188 596.855469 Z M 351.742188 596.855469 " fill-opacity="1" fill-rule="nonzero"/><path fill="#000000" d="M 249.425781 596.570312 C 253.148438 597.8125 256.949219 598.988281 260.722656 600.070312 L 264.417969 587.1875 C 260.832031 586.164062 257.214844 585.042969 253.675781 583.859375 Z M 249.425781 596.570312 " fill-opacity="1" fill-rule="nonzero"/><g clip-path="url(#a85b52be02)"><path fill="#000000" d="M 242.351562 542.457031 C 242.351562 540.886719 241.726562 539.378906 240.613281 538.273438 L 213.308594 510.992188 C 213.222656 510.902344 213.128906 510.820312 213.035156 510.738281 C 213.011719 510.714844 212.984375 510.695312 212.960938 510.671875 C 212.875 510.597656 212.78125 510.523438 212.6875 510.453125 C 212.675781 510.445312 212.664062 510.433594 212.652344 510.425781 C 212.550781 510.347656 212.445312 510.277344 212.339844 510.210938 C 212.308594 510.191406 212.277344 510.171875 212.246094 510.152344 C 212.148438 510.089844 212.050781 510.03125 211.953125 509.980469 C 211.941406 509.972656 211.925781 509.964844 211.914062 509.957031 C 211.804688 509.898438 211.691406 509.84375 211.578125 509.792969 C 211.546875 509.777344 211.515625 509.761719 211.480469 509.75 C 211.375 509.703125 211.265625 509.660156 211.15625 509.617188 C 211.144531 509.613281 211.136719 509.613281 211.125 509.605469 C 211.007812 509.5625 210.886719 509.527344 210.765625 509.492188 C 210.734375 509.484375 210.703125 509.472656 210.671875 509.464844 C 210.554688 509.433594 210.441406 509.40625 210.328125 509.382812 C 210.316406 509.378906 210.308594 509.375 210.296875 509.375 C 210.171875 509.351562 210.046875 509.328125 209.921875 509.3125 C 209.886719 509.308594 209.855469 509.304688 209.824219 509.300781 C 209.714844 509.285156 209.601562 509.277344 209.492188 509.269531 C 209.472656 509.269531 209.453125 509.265625 209.433594 509.265625 C 209.332031 509.261719 209.230469 509.257812 209.125 509.257812 L 139.332031 509.257812 C 136.058594 509.257812 133.410156 511.90625 133.410156 515.175781 L 133.410156 520.703125 L 133.238281 520.855469 C 133.296875 520.917969 133.351562 520.980469 133.410156 521.039062 L 133.410156 636.847656 C 133.410156 640.113281 136.058594 642.761719 139.332031 642.761719 L 236.429688 642.761719 C 239.699219 642.761719 242.351562 640.113281 242.351562 636.847656 L 242.351562 589.511719 L 245.523438 580.984375 C 244.46875 580.59375 243.410156 580.191406 242.351562 579.78125 Z M 215.046875 529.558594 L 220.789062 535.355469 L 215.046875 535.355469 Z M 230.503906 630.929688 L 145.253906 630.929688 L 145.253906 521.09375 L 203.203125 521.09375 L 203.203125 541.273438 C 203.203125 544.539062 205.851562 547.1875 209.125 547.1875 L 230.507812 547.1875 L 230.507812 630.929688 Z M 230.503906 630.929688 " fill-opacity="1" fill-rule="nonzero"/></g><path fill="#000000" d="M 579.644531 433.171875 L 592.09375 438.164062 C 593.589844 434.4375 595.023438 430.632812 596.351562 426.851562 L 583.695312 422.410156 C 582.429688 426.007812 581.070312 429.628906 579.644531 433.171875 Z M 579.644531 433.171875 " fill-opacity="1" fill-rule="nonzero"/><path fill="#000000" d="M 561.589844 469.589844 L 573.105469 476.453125 C 575.164062 473.007812 577.171875 469.46875 579.074219 465.941406 L 567.261719 459.589844 C 565.457031 462.945312 563.546875 466.308594 561.589844 469.589844 Z M 561.589844 469.589844 " fill-opacity="1" fill-rule="nonzero"/><path fill="#000000" d="M 571.332031 451.730469 L 583.347656 457.679688 C 585.132812 454.085938 586.859375 450.402344 588.480469 446.734375 L 576.210938 441.320312 C 574.667969 444.808594 573.027344 448.3125 571.332031 451.730469 Z M 571.332031 451.730469 " fill-opacity="1" fill-rule="nonzero"/><path fill="#000000" d="M 586.484375 414.015625 L 599.28125 418.019531 C 600.480469 414.191406 601.609375 410.285156 602.640625 406.40625 L 589.675781 402.972656 C 588.699219 406.664062 587.625 410.378906 586.484375 414.015625 Z M 586.484375 414.015625 " fill-opacity="1" fill-rule="nonzero"/><path fill="#000000" d="M 607.308594 385.539062 L 594.117188 383.128906 C 593.429688 386.882812 592.648438 390.667969 591.796875 394.386719 L 604.871094 397.375 C 605.765625 393.46875 606.585938 389.484375 607.308594 385.539062 Z M 607.308594 385.539062 " fill-opacity="1" fill-rule="nonzero"/><path fill="#000000" d="M 550.488281 486.636719 L 561.4375 494.375 C 563.753906 491.097656 566.03125 487.730469 568.203125 484.359375 L 556.925781 477.105469 C 554.859375 480.3125 552.691406 483.519531 550.488281 486.636719 Z M 550.488281 486.636719 " fill-opacity="1" fill-rule="nonzero"/><path fill="#000000" d="M 538.097656 502.769531 L 548.414062 511.332031 C 550.980469 508.246094 553.511719 505.0625 555.9375 501.871094 L 545.253906 493.769531 C 542.945312 496.804688 540.539062 499.835938 538.097656 502.769531 Z M 538.097656 502.769531 " fill-opacity="1" fill-rule="nonzero"/><path fill="#000000" d="M 524.492188 517.902344 L 534.117188 527.234375 C 536.914062 524.355469 539.683594 521.378906 542.347656 518.382812 L 532.324219 509.480469 C 529.789062 512.328125 527.152344 515.164062 524.492188 517.902344 Z M 524.492188 517.902344 " fill-opacity="1" fill-rule="nonzero"/><path fill="#000000" d="M 478.296875 100.097656 C 476.648438 99.105469 474.964844 98.117188 473.296875 97.164062 L 466.625 108.789062 C 468.214844 109.699219 469.816406 110.636719 471.382812 111.582031 Z M 478.296875 100.097656 " fill-opacity="1" fill-rule="nonzero"/><path fill="#000000" d="M 558.703125 197.308594 L 570.070312 190.199219 C 567.917969 186.761719 565.660156 183.324219 563.355469 179.984375 L 552.3125 187.589844 C 554.503906 190.765625 556.652344 194.035156 558.703125 197.308594 Z M 558.703125 197.308594 " fill-opacity="1" fill-rule="nonzero"/><path fill="#000000" d="M 568.925781 215.152344 L 580.820312 208.960938 C 578.945312 205.367188 576.964844 201.761719 574.925781 198.25 L 563.320312 204.96875 C 565.253906 208.308594 567.140625 211.734375 568.925781 215.152344 Z M 568.925781 215.152344 " fill-opacity="1" fill-rule="nonzero"/><path fill="#000000" d="M 547.105469 180.316406 L 557.882812 172.335938 C 555.46875 169.078125 552.945312 165.832031 550.386719 162.683594 L 539.972656 171.128906 C 542.410156 174.125 544.808594 177.214844 547.105469 180.316406 Z M 547.105469 180.316406 " fill-opacity="1" fill-rule="nonzero"/><path fill="#000000" d="M 577.707031 233.75 L 590.050781 228.515625 C 588.464844 224.785156 586.777344 221.035156 585.019531 217.371094 L 572.921875 223.152344 C 574.589844 226.636719 576.199219 230.203125 577.707031 233.75 Z M 577.707031 233.75 " fill-opacity="1" fill-rule="nonzero"/><path fill="#000000" d="M 504.867188 135.46875 L 513.492188 125.207031 C 510.382812 122.597656 507.175781 120.023438 503.953125 117.554688 L 495.789062 128.1875 C 498.855469 130.539062 501.910156 132.988281 504.867188 135.46875 Z M 504.867188 135.46875 " fill-opacity="1" fill-rule="nonzero"/><path fill="#000000" d="M 520.105469 149.300781 L 529.507812 139.742188 C 526.609375 136.902344 523.613281 134.085938 520.59375 131.375 L 511.625 141.335938 C 514.5 143.914062 517.351562 146.59375 520.105469 149.300781 Z M 520.105469 149.300781 " fill-opacity="1" fill-rule="nonzero"/><path fill="#000000" d="M 496.390625 111.960938 C 493.085938 109.605469 489.683594 107.289062 486.277344 105.082031 L 478.976562 116.320312 C 482.214844 118.421875 485.453125 120.625 488.59375 122.867188 Z M 496.390625 111.960938 " fill-opacity="1" fill-rule="nonzero"/><path fill="#000000" d="M 534.214844 164.28125 L 544.332031 155.484375 C 541.667969 152.421875 538.898438 149.382812 536.101562 146.445312 L 526.382812 155.675781 C 529.042969 158.472656 531.679688 161.367188 534.214844 164.28125 Z M 534.214844 164.28125 " fill-opacity="1" fill-rule="nonzero"/><path fill="#000000" d="M 408.367188 299.316406 C 410.28125 297.589844 410.902344 294.847656 409.914062 292.464844 L 403.769531 277.640625 C 402.78125 275.257812 400.402344 273.753906 397.824219 273.886719 L 381.398438 274.726562 L 376.285156 269.613281 L 377.125 253.203125 C 377.257812 250.628906 375.75 248.253906 373.367188 247.265625 L 358.527344 241.125 C 356.144531 240.136719 353.398438 240.757812 351.671875 242.671875 L 340.648438 254.867188 L 333.414062 254.867188 L 322.394531 242.671875 C 320.664062 240.757812 317.917969 240.136719 315.535156 241.125 L 300.695312 247.265625 C 298.3125 248.253906 296.808594 250.628906 296.941406 253.203125 L 297.78125 269.613281 L 292.664062 274.726562 L 276.238281 273.886719 C 273.664062 273.757812 271.285156 275.257812 270.296875 277.640625 L 264.148438 292.464844 C 263.160156 294.847656 263.78125 297.589844 265.695312 299.316406 L 277.902344 310.328125 L 277.902344 317.558594 L 265.695312 328.566406 C 263.78125 330.292969 263.160156 333.039062 264.148438 335.417969 L 270.296875 350.246094 C 271.285156 352.628906 273.664062 354.132812 276.238281 354 L 292.664062 353.160156 L 297.78125 358.269531 L 296.941406 374.683594 C 296.808594 377.253906 298.3125 379.632812 300.695312 380.621094 L 315.535156 386.761719 C 317.917969 387.746094 320.664062 387.128906 322.394531 385.214844 L 333.414062 373.019531 L 340.648438 373.019531 L 351.671875 385.214844 C 352.851562 386.523438 354.507812 387.226562 356.199219 387.226562 C 356.980469 387.226562 357.773438 387.074219 358.527344 386.761719 L 373.367188 380.621094 C 375.75 379.632812 377.257812 377.253906 377.125 374.683594 L 376.285156 358.269531 L 381.398438 353.160156 L 397.824219 354 C 400.402344 354.132812 402.78125 352.628906 403.769531 350.246094 L 409.914062 335.417969 C 410.902344 333.039062 410.28125 330.292969 408.367188 328.566406 L 396.160156 317.558594 L 396.160156 310.328125 Z M 385.980469 324.785156 L 397.003906 334.730469 L 394.148438 341.617188 L 379.316406 340.859375 C 377.59375 340.769531 375.914062 341.417969 374.695312 342.636719 L 365.746094 351.574219 C 364.527344 352.792969 363.878906 354.472656 363.96875 356.191406 L 364.726562 371.015625 L 357.835938 373.867188 L 347.878906 362.851562 C 346.722656 361.570312 345.078125 360.839844 343.355469 360.839844 L 330.699219 360.839844 C 328.976562 360.839844 327.332031 361.570312 326.175781 362.851562 L 316.222656 373.867188 L 309.332031 371.015625 L 310.089844 356.191406 C 310.175781 354.472656 309.53125 352.792969 308.308594 351.574219 L 299.363281 342.636719 C 298.140625 341.417969 296.460938 340.769531 294.742188 340.859375 L 279.90625 341.617188 L 277.050781 334.730469 L 288.078125 324.789062 C 289.355469 323.632812 290.089844 321.988281 290.089844 320.265625 L 290.089844 307.625 C 290.089844 305.902344 289.355469 304.257812 288.078125 303.101562 L 277.050781 293.15625 L 279.90625 286.273438 L 294.742188 287.03125 C 296.464844 287.117188 298.140625 286.472656 299.363281 285.253906 L 308.308594 276.3125 C 309.527344 275.09375 310.175781 273.417969 310.089844 271.695312 L 309.332031 256.875 L 316.222656 254.023438 L 326.175781 265.039062 C 327.332031 266.316406 328.976562 267.046875 330.699219 267.046875 L 343.355469 267.046875 C 345.078125 267.046875 346.722656 266.316406 347.878906 265.039062 L 357.832031 254.023438 L 364.722656 256.875 L 363.964844 271.695312 C 363.878906 273.417969 364.523438 275.09375 365.746094 276.3125 L 374.691406 285.253906 C 375.910156 286.472656 377.589844 287.117188 379.3125 287.03125 L 394.148438 286.273438 L 397.003906 293.15625 L 385.976562 303.101562 C 384.699219 304.257812 383.964844 305.902344 383.964844 307.625 L 383.964844 320.265625 C 383.96875 321.988281 384.699219 323.632812 385.980469 324.785156 Z M 385.980469 324.785156 " fill-opacity="1" fill-rule="nonzero"/><path fill="#000000" d="M 337.03125 280.421875 C 318.527344 280.421875 303.476562 295.460938 303.476562 313.945312 C 303.476562 332.429688 318.527344 347.46875 337.03125 347.46875 C 355.53125 347.46875 370.582031 332.429688 370.582031 313.945312 C 370.582031 295.457031 355.53125 280.421875 337.03125 280.421875 Z M 337.03125 335.285156 C 325.253906 335.285156 315.667969 325.710938 315.667969 313.945312 C 315.667969 302.175781 325.25 292.601562 337.03125 292.601562 C 348.808594 292.601562 358.390625 302.175781 358.390625 313.945312 C 358.390625 325.714844 348.808594 335.285156 337.03125 335.285156 Z M 337.03125 335.285156 " fill-opacity="1" fill-rule="nonzero"/></g></g></g></svg>